<svg xmlns="http://www.w3.org/2000/svg" xmlns:xlink="http://www.w3.org/1999/xlink" viewBox="0 0 1421.3 32" width="1421.3" height="32"><g opacity=".7"><defs><path id="a" opacity=".7" d="M0 0h1421.3v32H0z"/></defs><clipPath id="b"><use xlink:href="#a" overflow="visible"/></clipPath><g clip-path="url(#b)" fill="#7D4A37"><path d="M-72.1 18v3H-55v-.3h1.6c43.6-.2 72.4.3 77.2 1.2 7.5 1.5 12.9 4.3 18.6 7.3 9.4 4.9 19.9 10.4 41.4 10.4 21.7 0 32.2-5.5 41.5-10.4 5.7-3 11-5.8 18.5-7.3 4.8-1 56.1-1.5 134-1.3h1.6V18h-1.6c-47.4-.1-128-.1-135.4 1.4-8.3 1.7-14.2 4.8-19.9 7.8-9.1 4.8-18.6 9.8-38.7 9.8-19.9 0-29.4-5-38.6-9.8-5.8-3-11.5-6.1-19.8-7.8-6.7-1.4-44-1.5-75.3-1.4h-22.2z"/><path d="M201.7 27h24.2v3h-24.2zm-56.6 0h41.4v3h-41.4zM-38.7 39.4c9.2-4.8 18.6-9.8 38.8-9.8 19.9 0 29.4 5 38.6 9.8 5.8 3 11.8 6.1 20 7.8 6.1 1.2 15.9 1.4 22.6 1.4h4.1v.4h83.9v-3H86.1c-4.6.1-18.7.2-26.1-1.3-7.5-1.5-12.9-4.3-18.6-7.3C32.1 32.6 21.5 27 .1 27c-21.7 0-32.2 5.5-41.5 10.4-5.7 3-11 5.8-18.5 7.3-4.8 1-33.6 1.5-77.2 1.3H-254v3h115.2l1.4-.2c4.7 0 10-.1 15.6-.1 25.6 0 57.1-.3 63.1-1.5 8.4-1.6 14.3-4.7 20-7.8zM84.2 22h.3v-.4c15.2 0 27.2-8.3 27.2-15.2 0-6.9-12-15.2-27.2-15.2V-9h-.3.3v.2C69.3-8.8 57.3-.5 57.3 6.4c0 6.9 12 15.2 27.2 15.2v.4h-.3zM61.3 6.4C61.3.7 71.9-6.2 84.2-6.2c12.4 0 22.9 6.9 22.9 12.6 0 5.7-10.6 12.6-22.9 12.6-12.4 0-22.9-6.9-22.9-12.6z"/><path d="M115.7-5.1c5.1 3.2 9.8 6.2 16.4 7.5 3.7.7 10.9 1.1 22 1.1h6.1V.9h-1.1c-16.7.1-23.2-.4-25.7-1-5.6-1.1-10-3.9-14.7-6.9-8-5-17-10.7-34.6-10.7S57.5-12 49.5-7c-4.6 3.1-9 5.8-14.6 7-3.6.7-24.3 1.1-55.4 1h-1.1v2.6h14.1c19.7 0 39.5-.2 43.8-1.1C42.9 1.2 47.6-1.8 52.7-5c7.7-4.9 15.7-10 31.5-10s23.8 5.1 31.5 9.9z"/><path d="M94.8 6.4c0-3.7-4.9-6.7-10.9-6.7S73 2.7 73 6.4s4.9 6.7 10.9 6.7c6 .1 10.9-2.9 10.9-6.7zm-17.6 0c0-2.3 3-4.1 6.7-4.1s6.7 1.8 6.7 4.1-3 4.1-6.7 4.1-6.7-1.8-6.7-4.1zM177.4 1h188.9v3H177.4zm41.4 11s250.1.1 254.5.1c25.3 0 27.8 5.4 33.6 8.4 9.3 4.9 19.9 10.4 41.4 10.4 21.7 0 32.2-5.5 41.5-10.4 5.7-3 11-5.8 18.5-7.3 7.3-1.5 18.1-1.3 22.1-1.3h1.7v.1H723V9h-93 .2c-4.6 0-15.4-.1-23.3 1.5-8.3 1.7-14.2 4.9-19.9 7.9-9.2 4.8-18.7 9.8-38.8 9.8-19.9 0-29.4-4.9-38.6-9.7-5.8-3-9.6-9.4-35.9-9.4H218.8V12z"/><path d="M-138.8 9v3h117.2v-.1h1.1c31.2-.1 51.9.2 55.5 1 5.6 1.1 10 3.9 14.7 6.9 8 5 17 10.7 34.6 10.7s26.6-5.7 34.6-10.7c4.7-2.9 9-5.7 14.5-6.8 3.1-.4 54.2-.8 69.4-.8V9.5c-9.1 0-67.8.3-70.6.9-6.6 1.3-11.3 4.3-16.4 7.5-7.7 4.9-15.7 9.9-31.5 9.9s-23.8-5-31.5-9.9c-5.1-3.2-9.8-6.2-16.4-7.5-5.5-1.1-33.9-1.2-57-1.1h-1.1V9h-117.1zm560.3 39.6h1.5V46h-1.5c-54.2.2-89.3-.3-94.2-1.3-7.5-1.5-12.8-4.3-18.6-7.3-9.4-4.9-19.9-10.4-41.4-10.4-21.7 0-32.2 5.5-41.5 10.4-5.7 3-11 5.8-18.5 7.3-7.3 1.5-18.1 1.3-22.1 1.3h-1.7v2.6h5.9c5.4 0 13.2-.2 19.2-1.4 8.3-1.7 14.2-4.8 20-7.8 9.2-4.8 18.7-9.8 38.8-9.8 19.9 0 29.4 5 38.6 9.8 5.8 3 11.8 6.1 20 7.8 5.8 1.2 42 1.4 73 1.4 8.1.1 15.7.1 22.5 0zm140.5.1c27.2 0 54.4-.3 60-1.4 8.3-1.7 14.2-4.8 19.9-7.8 9.2-4.8 18.6-9.8 38.7-9.8 19.9 0 29.4 5 38.6 9.8 5.8 3 11.8 6.1 20 7.8 5.8 1.2 42.1 1.4 73.1 1.4H836V46h-1.5c-54.2.2-89.3-.3-94.2-1.3-7.5-1.5-12.8-4.3-18.6-7.3-9.4-4.9-19.9-10.4-41.4-10.4-21.7 0-32.2 5.5-41.5 10.4-5.7 3-11 5.8-18.5 7.3-4.8 1-33.5 1.4-77 1.3h-1.4v2.6h1.4c6.3.1 12.4.1 18.7.1zm735.2 0c5.4 0 13.1-.2 19.2-1.4 8.3-1.7 14.2-4.8 19.9-7.8 9.2-4.8 18.6-9.8 38.8-9.8 19.9 0 29.4 5 38.6 9.8 5.8 3 11.8 6.1 20 7.8 5.9 1.2 42.8 1.4 73.1 1.4h18.6v-2.6c-51.8.2-85.7-.3-90.4-1.3-7.5-1.5-12.9-4.3-18.6-7.3-9.3-4.9-19.9-10.4-41.4-10.4-21.7 0-32.2 5.5-41.5 10.4-5.7 3-11 5.8-18.5 7.3-7.3 1.5-17.8 1.3-21.8 1.3h-1.4v2.6h5.4zM398.7 27h80.8v3h-80.8zm-89.9 0h73.8v3h-73.8zm305.1-9h176.8v3H613.9zm57.6-17h84.9v3h-84.9zm102.1 0h117.2v3H773.6zm134.3 0h162.7v3H907.9zm-32.3 17h144.5v3H875.6zm-67.7 0h51.5v3h-51.5zm227.3 0v3h17.2v-.3h1.8c43.5-.2 72.5.3 77.3 1.3 7.5 1.5 12.9 4.3 18.7 7.3 9.4 4.9 20 10.4 41.4 10.4 21.7 0 32.2-5.5 41.5-10.4 5.7-3 11-5.8 18.5-7.3 4.8-1 55.9-1.5 133.8-1.3h1.5V18h-1.4c-47.4-.1-127.9-.1-135.3 1.4-8.3 1.7-14.1 4.8-19.9 7.8-9.2 4.8-18.6 9.8-38.7 9.8-19.9 0-29.4-5-38.6-9.8-5.8-3-11.7-6.1-20-7.8-6.7-1.4-44.2-1.5-75.5-1.4h-22.3zm-443.5 9h44.5v3h-44.5zM723 27h180.9v3H723zm198.1 0h144.5v3H921.1z"/><path d="M1309.1 27h23.2v3h-23.2zm-55.6 0h41.4v3h-41.4zm-184.4 12.4c9.2-4.8 18.7-9.8 38.8-9.8 19.9 0 29.4 5 38.6 9.8 5.8 3 11.8 6.1 20 7.8 6.1 1.2 15.8 1.4 22.4 1.4h4v.4h83.9v-3h-82.5c-4.6.1-18.9.2-26.2-1.3-7.5-1.5-12.9-4.3-18.7-7.3-9.3-4.9-20-10.4-41.4-10.4-21.7 0-32.2 5.5-41.5 10.4-5.7 3-11 5.8-18.5 7.3-4.8 1-33.8 1.5-77.4 1.3H853.5v3H969l1.4-.2c4.7 0 10-.1 15.6-.1 25.6 0 57.1-.3 63.1-1.5 8.3-1.6 14.2-4.7 20-7.8zm95.6-33c0 6.9 12.1 15.2 27.2 15.2s27.2-8.3 27.2-15.2c0-6.9-12.1-15.2-27.2-15.2-15 0-27.2 8.3-27.2 15.2zm50.1 0c0 5.7-10.6 12.6-22.9 12.6-12.3 0-22.9-6.9-22.9-12.6 0-5.7 10.6-12.6 22.9-12.6 12.4 0 22.9 7 22.9 12.6z"/><path d="M1223.5-5.1c5 3.2 9.8 6.2 16.4 7.5 3.7.7 10.9 1.1 22 1.1h6.8V.9h-1.4c-16.7.1-23.4-.4-25.9-1-5.6-1.1-10.1-3.9-14.8-6.9-8-5-17-10.7-34.6-10.7S1165.3-12 1157.4-7c-4.7 2.9-9.1 5.7-14.7 6.9-3.6.7-24.4 1.1-55.6 1h-1.3v2.6h14.3c19.7 0 39.5-.2 43.9-1.1 6.6-1.3 11.4-4.3 16.4-7.5 7.7-4.9 15.7-9.9 31.5-9.9s23.8 5.1 31.6 9.9zM615.9 39.6V37c-53 .2-87.6-.3-92.4-1.3-7.5-1.5-12.9-4.3-18.6-7.3C495.5 23.5 485 18 463.5 18H294.6v3h168.8c19.9 0 29.4 4.8 38.6 9.6 5.8 3 11.8 6 20 7.7 5.8 1.2 42.1 1.4 72.6 1.4 7.7 0 15-.1 21.3-.1z"/><path d="M1180.6 6.4c0 3.7 4.9 6.7 10.9 6.7s10.9-3 10.9-6.7-4.9-6.7-10.9-6.7-10.9 3-10.9 6.7zm17.6 0c0 2.3-3 4.1-6.7 4.1s-6.7-1.8-6.7-4.1 3-4.1 6.7-4.1 6.7 1.9 6.7 4.1zm87.6-5.4h188.9v3h-188.9zm40.4 8h294v3h-294zm75.8 9h36.4v3H1402zM897.8 9H740.2v3h211.2V9h-53.6"/><path d="M968.6 9v3h117.2v-.1h1.3c31.2-.1 52 .2 55.6 1 5.6 1.1 10 3.9 14.7 6.9 8 5 17 10.7 34.6 10.7s26.6-5.7 34.6-10.7c4.7-2.9 8.9-5.7 14.3-6.8 3.2-.4 54.1-.8 69.2-.8V9.5c-8.1 0-67.7.3-70.4.9-6.6 1.3-11.2 4.3-16.3 7.5-7.7 4.9-15.7 9.9-31.5 9.9s-23.8-5-31.5-9.9c-5.1-3.2-9.8-6.2-16.4-7.5-5.3-1.1-33.9-1.2-57-1.1h-1.2V9H968.6zm-451.9.5c-5-3.2-10.5-8.5-25.9-8.5H380.5v3h109.6c14.4 0 18.8 4.4 23.5 7.3 8 5 17 10.7 34.6 10.7s26.6-5.7 34.6-10.7c4.7-2.9 9.1-5.7 14.7-6.9 3.6-.7 24.4-1.1 55.6-1h1.2V.9h-1.2c-23-.1-51.6 0-56.9 1.1-6.6 1.3-11.3 4.3-16.4 7.5-7.7 4.9-15.7 9.9-31.5 9.9-15.9 0-23.9-5-31.6-9.9zM1415.1 27h160.7v3h-160.7z"/><path d="M526.9 2h-4.6c3.4 6 13.6 11 25.9 11 12.3 0 22.6-5 25.9-11h-4.6c-3.3 4-11.8 8.7-21.4 8.7-9.4 0-17.9-4.7-21.2-8.7z"/><path d="M539.1 2h17.2v3h-17.2z"/></g></g></svg>