<?xml version="1.0" encoding="utf-8"?>
<!-- Generator: Adobe Illustrator 18.0.0, SVG Export Plug-In . SVG Version: 6.00 Build 0)  -->
<!DOCTYPE svg PUBLIC "-//W3C//DTD SVG 1.1//EN" "http://www.w3.org/Graphics/SVG/1.1/DTD/svg11.dtd">
<svg version="1.1" id="Layer_1" xmlns="http://www.w3.org/2000/svg" xmlns:xlink="http://www.w3.org/1999/xlink" x="0px" y="0px"
	 viewBox="0 0 612 792" enable-background="new 0 0 612 792" xml:space="preserve">
<path fill="#F3BA50" d="M442.7,325.3c-9.6-5-70.1-6.5-122.8-6.9h-16.6v438.9h16.6v-0.8c10.8-0.4,23.9-0.8,27.3-1.9
	C347.2,666.9,416.9,396.6,442.7,325.3z"/>
<path fill="#BC873F" d="M166.2,321.5c21.2,66.6,99,345.4,99,433.2c5,1.5,25,2.3,41.2,2.3V318.4C248.6,318.4,176.2,316.1,166.2,321.5
	z"/>
<path fill="#E6AF3D" d="M273.7,383.1h66.2v344.6h-66.2V383.1z"/>
<path fill="#AA7C2C" d="M263.6,373.9H281v355h-17.3V373.9z"/>
<path fill="#F3DD90" d="M331,372.7h17.3v355H331V372.7z"/>
<path opacity="0.2" fill="#010101" enable-background="new    " d="M306,73.2c-74.7,0-135.1,60.4-135.1,135.1S231.3,343.4,306,343.4
	S441.1,283,441.1,208.3C441.1,133.6,380.7,73.2,306,73.2z"/>
<path fill="#FFCE44" d="M306,125.1c-22.7,0-41.2,18.5-41.2,41.2s18.5,41.2,41.2,41.2s41.2-18.5,41.2-41.2S328.7,125.1,306,125.1z"/>
<path fill="#FFCE44" d="M306,125.1c-22.7,0-41.2,18.5-41.2,41.2s18.5,41.2,41.2,41.2s41.2-18.5,41.2-41.2S328.7,125.1,306,125.1z"/>
<path fill="none" stroke="#F3DD90" stroke-width="2" stroke-miterlimit="10" d="M344.1,720.8l95.1-405.4"/>
<path fill="none" stroke="#AA7C2C" stroke-width="2" stroke-miterlimit="10" d="M264.8,720.8l-95.1-405.4"/>
<path fill="#F3BA50" d="M351.4,723.9H246.3V792h119v-68.1"/>
<path fill="#E6AF3D" d="M246.3,723.9h88.9V792h-88.9V723.9z"/>
<path fill="#F3DD90" d="M246.3,718.1h119v5.8h-119V718.1z M334.1,723.9h19.3V792h-19.3V723.9z"/>
<path fill="#AA7C2C" d="M257.5,723.9h19.3V792h-19.3V723.9z"/>
<g>
	<circle opacity="0.2" fill="#010101" enable-background="new    " cx="306" cy="206" r="191.7"/>
	<circle fill="#C9543E" cx="306" cy="191.7" r="179"/>
	<path fill="#953D2A" d="M306,370.8c-99,0-179-80.1-179-179c0-49.3,20-94.3,52.4-126.7l-8.9-8.9c-34.7,34.7-56.2,82.8-56.2,135.5
		c0,105.9,85.9,191.7,191.7,191.7c53.1,0,100.9-21.2,135.5-56.2l-8.9-8.9C400.3,350.8,355.7,370.8,306,370.8L306,370.8z"/>
	<path fill="#F36D3F" d="M306,0c-52.7,0-100.9,21.6-135.5,56.2l8.9,8.9c32.3-32.3,77.4-52.4,126.7-52.4c99,0,179,80.1,179,179
		c0,49.3-20,94.3-52.4,126.7l8.9,8.9c34.7-34.7,56.2-82.8,56.2-135.5C497.7,85.9,411.9,0,306,0z"/>
	<path fill="#F3BA50" d="M306,69.7c-66.2,0-119.7,53.5-119.7,119.7S239.8,309.2,306,309.2s119.7-53.5,119.7-119.7
		S372.2,69.7,306,69.7z"/>
	<path fill="#AA7C2C" d="M306,309.2c-66.2,0-119.7-53.5-119.7-119.7c0-33.1,13.5-63.1,35-84.7l-10.8-10.8
		c-24.3,24.3-39.7,58.1-39.7,95.5c0,74.7,60.4,135.1,135.1,135.1c37.3,0,71.2-15,95.5-39.7l-10.8-10.8
		C369.1,295.7,339.1,309.2,306,309.2L306,309.2z"/>
	<path fill="#F3DD90" d="M306,54.3c-37.3,0-71.2,15-95.5,39.7l10.8,10.8c21.6-21.6,51.6-35,84.7-35c66.2,0,119.7,53.5,119.7,119.7
		c0,33.1-13.5,63.1-35,84.7l10.8,10.8c24.3-24.3,39.7-58.1,39.7-95.5C441.1,114.7,380.7,54.3,306,54.3L306,54.3z"/>
</g>
<g>
	<path fill="#E23237" d="M229.5,129.5l76.3-29.7l78.3,29.2l-12.7,110.4l-65.6,39.8l-64.6-39.2L229.5,129.5z"/>
	<path fill="#B52E31" d="M384.1,129l-78.3-29.2v179.4l65.6-39.7L384.1,129L384.1,129z"/>
	<path fill="#FFFFFF" d="M305.9,120.7l-47.5,115.7l17.8-0.3l9.5-26.1h42.6l10.4,26.4l17,0.3L305.9,120.7L305.9,120.7z M306,157.8
		l16.1,36.7h-30.2L306,157.8L306,157.8z"/>
</g>
</svg>
