<svg xmlns="http://www.w3.org/2000/svg" viewBox="0 0 143.6 227.6"><path opacity=".2" fill="#F4EFE5" d="M94.2 224.5l-42.2.8-46.6-1-3-3.2V5.2S31 1.5 51.2 1.5c21.4 0 50.8 3.7 50.8 3.7v214.3l-7.8 5z"/><path opacity=".5" fill="#F4EFE5" d="M138.1 54.7c-3.6-3.7-8.5-5.9-14-5.9h-19.9v4.3h19.9c4.3 0 8.2 1.8 11 4.7 2.7 2.8 4.3 6.5 4.3 10.6v60.7c0 9.5-1.3 18.6-7.6 24.9l3.1 3.1c7.4-7.5 8.8-18.1 8.8-28V68.4c-.1-5.4-2.2-10.2-5.6-13.7zm-34 103.4c12.5 0 20.1-2.6 24.6-7.2l-3.1-3.1c-3.8 3.8-10.3 6-21.5 6"/><path opacity=".3" fill="#F4EFE5" d="M104 166.8c15.4 0 24.9-3.9 30.7-9.7l-3.1-3.1c-5.2 5.2-13.7 8.5-27.7 8.5"/><path fill="#F4EFE5" d="M135 57.7c-2.8-2.9-6.7-4.7-11-4.7h-19.9v4.3H124c3.1 0 5.9 1.3 7.9 3.4 1.9 2 3 4.6 3 7.5v60.7c0 9-1.2 16.7-6.3 21.8-4.5 4.6-12.1 7.2-24.6 7.2v4.3c14 0 22.5-3.3 27.7-8.5 6.2-6.3 7.5-15.4 7.6-24.9V68.1c0-3.9-1.6-7.6-4.3-10.4z"/><path opacity=".3" fill="#F4EFE5" d="M131.9 60.8c-2-2.1-4.8-3.4-7.9-3.4h-19.9v4.3H124c1.9 0 3.6.8 4.8 2.1 1.1 1.2 1.8 2.7 1.8 4.5V129c0 7.6-.6 14.2-5.1 18.7l3.1 3.1c5.1-5.2 6.3-12.8 6.3-21.8V68.3c.1-2.9-1.1-5.5-3-7.5z"/><path fill="#F4EFE5" d="M99.6 190.3c0 5.3-21.7 9.8-47.5 9.8H52c-25.3 0-47.5-4.6-47.5-9.8H2v4.7c2.9 3.1 9 5.4 18.4 7.1 10.5 1.9 23.3 2.6 31.7 2.6h.1c4.2 0 18.6-.2 31.7-2.5 8.9-1.6 14.8-3.8 17.9-6.7v-5.1l-2.2-.1z"/><path opacity=".5" fill="#F4EFE5" d="M2.3 193.2v26.4l3.6 4.2 89-.1 7-4.7v-25.8s-19.6 9.7-50.6 9.7c-26.2 0-49-9.7-49-9.7z"/><path fill="none" stroke="#F4EFE5" stroke-width="4.5" stroke-linejoin="round" stroke-miterlimit="10" d="M101.9 6.9v207.9c0 9.1-5.2 10.5-15.2 10.5H17.5c-10.3 0-15.3-2-15.3-10.5V6.8c0-6.2 99.7-6 99.7.1z"/><path opacity=".7" fill="none" stroke="#F4EFE5" stroke-width="23" stroke-miterlimit="10" d="M78.8 2.5v224"/></svg>