<svg xmlns="http://www.w3.org/2000/svg" xmlns:xlink="http://www.w3.org/1999/xlink" viewBox="0 0 99.6 205.7"><path fill="#F3BA50" d="M85.3 84.5c-2.5-1.3-18.2-1.7-31.9-1.8h-4.3v114h4.3v-.2c2.8-.1 6.2-.2 7.1-.5 0-22.8 18.1-93 24.8-111.5z"/><path fill="#BC873F" d="M13.5 83.5C19 100.8 39.2 173.2 39.2 196c1.3.4 6.5.6 10.7.6V82.7c-15 0-33.8-.6-36.4.8z"/><path fill="#E6AF3D" d="M41.4 99.5h17.2V189H41.4z"/><path fill="#AA7C2C" d="M38.8 97.1h4.5v92.2h-4.5z"/><path fill="#F3DD90" d="M56.3 96.8h4.5V189h-4.5z"/><path fill="#010101" d="M49.8 19c-19.4 0-35.1 15.7-35.1 35.1 0 19.4 15.7 35.1 35.1 35.1 19.4 0 35.1-15.7 35.1-35.1C84.9 34.7 69.2 19 49.8 19z" opacity=".2"/><path fill="#FFCE44" d="M49.8 32.5c-5.9 0-10.7 4.8-10.7 10.7 0 5.9 4.8 10.7 10.7 10.7 5.9 0 10.7-4.8 10.7-10.7 0-5.9-4.8-10.7-10.7-10.7z"/><path fill="#FFCE44" d="M49.8 32.5c-5.9 0-10.7 4.8-10.7 10.7 0 5.9 4.8 10.7 10.7 10.7 5.9 0 10.7-4.8 10.7-10.7 0-5.9-4.8-10.7-10.7-10.7z"/><path fill="none" stroke="#F3DD90" stroke-width="2" stroke-miterlimit="10" d="M59.7 187.2L84.4 81.9"/><path fill="none" stroke="#AA7C2C" stroke-width="2" stroke-miterlimit="10" d="M39.1 187.2L14.4 81.9"/><path fill="#F3BA50" d="M61.6 188H34.3v17.7H65.2V188"/><path fill="#E6AF3D" d="M34.3 188h23.1v17.7H34.3z"/><path fill="#F3DD90" d="M34.3 186.5h30.9v1.5H34.3zM57.1 188h5v17.7h-5z"/><path fill="#AA7C2C" d="M37.2 188h5v17.7h-5z"/><g><circle fill="#010101" cx="49.8" cy="53.5" r="49.8" opacity=".2"/><circle fill="#C9543E" cx="49.8" cy="49.8" r="46.5"/><path fill="#953D2A" d="M49.8 96.3c-25.7 0-46.5-20.8-46.5-46.5 0-12.8 5.2-24.5 13.6-32.9l-2.3-2.3C5.6 23.6 0 36.1 0 49.8c0 27.5 22.3 49.8 49.8 49.8C63.6 99.6 76 94.1 85 85l-2.3-2.3c-8.4 8.4-20 13.6-32.9 13.6z"/><path fill="#F36D3F" d="M49.8 0C36.1 0 23.6 5.6 14.6 14.6l2.3 2.3C25.3 8.5 37 3.3 49.8 3.3c25.7 0 46.5 20.8 46.5 46.5 0 12.8-5.2 24.5-13.6 32.9L85 85c9-9 14.6-21.5 14.6-35.2C99.6 22.3 77.3 0 49.8 0z"/><path fill="#F3BA50" d="M49.8 18.1c-17.2 0-31.1 13.9-31.1 31.1 0 17.2 13.9 31.1 31.1 31.1 17.2 0 31.1-13.9 31.1-31.1C80.9 32 67 18.1 49.8 18.1z"/><path fill="#AA7C2C" d="M49.8 80.3c-17.2 0-31.1-13.9-31.1-31.1 0-8.6 3.5-16.4 9.1-22L25 24.4c-6.3 6.3-10.3 15.1-10.3 24.8 0 19.4 15.7 35.1 35.1 35.1 9.7 0 18.5-3.9 24.8-10.3l-2.8-2.8c-5.6 5.6-13.4 9.1-22 9.1z"/><path fill="#F3DD90" d="M49.8 14.1c-9.7 0-18.5 3.9-24.8 10.3l2.8 2.8c5.6-5.6 13.4-9.1 22-9.1C67 18.1 80.9 32 80.9 49.2c0 8.6-3.5 16.4-9.1 22l2.8 2.8c6.3-6.3 10.3-15.1 10.3-24.8 0-19.4-15.7-35.1-35.1-35.1z"/></g><g><defs><path id="a" d="M49.8 18.1c-17.2 0-31.1 13.9-31.1 31.1 0 17.2 13.9 31.1 31.1 31.1 17.2 0 31.1-13.9 31.1-31.1C80.9 32 67 18.1 49.8 18.1z"/></defs><clipPath id="b"><use xlink:href="#a" overflow="visible"/></clipPath><g clip-path="url(#b)"><path fill="#F3DD90" d="M49.9 50.2h-.4l-.7-19.6M49.9 50.2l-.4.1 1 19.5"/><path fill="#F3DD90" d="M49.9 50.2l-.4.1-2.4-19.5M49.9 50.2l-.4.1 2.7 19.4"/><path fill="#F3DD90" d="M49.9 50.2l-.4.1-4.1-19.2M49.9 50.2l-.4.1 4.4 19.1"/><path fill="#F3DD90" d="M49.9 50.2l-.4.1-5.7-18.8"/><path fill="#F3DD90" d="M49.9 50.2l-.4.1L55.6 69"/><path fill="#F3DD90" d="M49.9 50.2l-.4.1-7.3-18.2"/><path fill="#F3DD90" d="M49.9 50.2l-.4.1 7.7 18.1M49.9 50.1l-.4.2-8.9-17.5"/><path fill="#F3DD90" d="M49.9 50.1l-.4.2 9.2 17.3M49.8 50.1l-.3.2-10.4-16.6"/><path fill="#F3DD90" d="M49.9 50.1l-.4.2 10.7 16.5"/><path fill="#F3DD90" d="M49.8 50.1l-.3.3-11.8-15.7M49.8 50.1l-.3.3 12.1 15.4"/><path fill="#F3DD90" d="M49.8 50.1l-.3.3-13.1-14.6M49.8 50.1l-.3.3 13.4 14.3"/><path fill="#F3DD90" d="M49.8 50.1l-.3.3L35.2 37"/><path fill="#F3DD90" d="M49.8 50.1l-.3.3 14.7 13.1"/><path fill="#F3DD90" d="M49.8 50.1l-.2.3-15.5-12.1M49.8 50.1l-.2.3 15.6 11.8"/><path fill="#F3DD90" d="M49.8 50.1l-.2.3-16.5-10.7"/><path fill="#F3DD90" d="M49.8 50.1l-.2.3 16.6 10.4"/><path fill="#F3DD90" d="M49.8 50.1l-.2.3-17.3-9.2"/><path fill="#F3DD90" d="M49.8 50.1l-.2.3 17.5 8.9M49.8 50l-.2.4-18.1-7.7"/><path fill="#F3DD90" d="M49.8 50.1l-.2.3 18.2 7.3"/><path fill="#F3DD90" d="M49.7 50l-.1.4L31 44.3M49.7 50l-.1.4 18.8 5.7"/><path fill="#F3DD90" d="M49.7 50l-.1.4L30.5 46"/><path fill="#F3DD90" d="M49.7 50l-.1.4 19.2 4.1"/><path fill="#F3DD90" d="M49.7 50v.4l-19.5-2.7M49.7 50v.4l19.4 2.4"/><path fill="#F3DD90" d="M49.7 50v.4l-19.6-1M49.7 50v.4l19.6.7"/><path fill="#F3DD90" d="M49.7 50v.4l-19.6.7M49.7 50v.4l19.6-1"/><path fill="#F3DD90" d="M49.6 50l.1.4-19.5 2.4M49.7 50v.4l19.4-2.7"/><path fill="#F3DD90" d="M49.6 50l.1.4-19.2 4.1"/><path fill="#F3DD90" d="M49.6 50l.1.4L68.8 46"/><g><path fill="#F3DD90" d="M49.6 50l.1.4L31 56.1"/><path fill="#F3DD90" d="M49.6 50l.1.4 18.7-6.1"/></g><g><path fill="#F3DD90" d="M49.6 50.1l.2.3-18.3 7.3M49.6 50l.2.4 18-7.7"/></g><g><path fill="#F3DD90" d="M49.6 50.1l.2.3-17.5 8.9"/><path fill="#F3DD90" d="M49.6 50.1l.2.3 17.3-9.2"/></g><g><path fill="#F3DD90" d="M49.6 50.1l.2.3-16.7 10.4"/><path fill="#F3DD90" d="M49.6 50.1l.2.3 16.4-10.7"/></g><g><path fill="#F3DD90" d="M49.6 50.1l.2.3-15.7 11.8"/><path fill="#F3DD90" d="M49.6 50.1l.2.3 15.5-12.1"/></g><g><path fill="#F3DD90" d="M49.5 50.1l.3.3-14.6 13.1M49.6 50.1l.2.3L64.2 37"/></g><g><path fill="#F3DD90" d="M49.5 50.1l.3.3-13.4 14.3"/><path fill="#F3DD90" d="M49.5 50.1l.3.3 13.1-14.6"/></g><g><path fill="#F3DD90" d="M49.5 50.1l.3.3-12.1 15.4"/><path fill="#F3DD90" d="M49.5 50.1l.3.3 11.8-15.7"/></g><g><path fill="#F3DD90" d="M49.5 50.1l.3.2-10.7 16.5M49.5 50.1l.4.2 10.3-16.6"/></g><g><path fill="#F3DD90" d="M49.5 50.1l.4.2-9.3 17.3"/><path fill="#F3DD90" d="M49.5 50.1l.4.2 8.8-17.5"/></g><g><path fill="#F3DD90" d="M49.5 50.2l.4.1-7.7 18.1"/><path fill="#F3DD90" d="M49.5 50.2l.4.1 7.3-18.2"/></g><g><path fill="#F3DD90" d="M49.5 50.2l.4.1L43.8 69"/><path fill="#F3DD90" d="M49.5 50.2l.4.1 5.7-18.8"/></g><g><path fill="#F3DD90" d="M49.5 50.2l.4.1-4.5 19.1"/><path fill="#F3DD90" d="M49.5 50.2l.4.1 4-19.2"/></g><g><path fill="#F3DD90" d="M49.5 50.2l.4.1-2.8 19.4"/><path fill="#F3DD90" d="M49.5 50.2l.4.1 2.3-19.5"/></g><g><path fill="#F3DD90" d="M49.5 50.2h.4l-1.1 19.6M49.5 50.2h.4l.6-19.6"/></g><g><path fill="#F3DD90" d="M49.9 50.2h-.4l.2-19.6M49.9 50.2h-.4l.2 19.7"/><path fill="#F3DD90" d="M49.9 50.2l-.4.1L48 30.7M49.9 50.2l-.4.1 1.9 19.5"/><path fill="#F3DD90" d="M49.9 50.2l-.4.1-3.2-19.4M49.9 50.2l-.4.1 3.6 19.3"/><path fill="#F3DD90" d="M49.9 50.2l-.4.1-4.9-19"/><path fill="#F3DD90" d="M49.9 50.2l-.4.1 5.3 18.9"/><path fill="#F3DD90" d="M49.9 50.2l-.4.1L43 31.8"/><path fill="#F3DD90" d="M49.9 50.2l-.4.1 6.9 18.4M49.9 50.1l-.4.2-8.1-17.8"/><path fill="#F3DD90" d="M49.9 50.2l-.4.1L58 68M49.9 50.1l-.4.2-9.6-17.1"/><path fill="#F3DD90" d="M49.9 50.1l-.4.2 10 16.9M49.8 50.1l-.3.2-11.1-16.1"/><path fill="#F3DD90" d="M49.8 50.1l-.3.3 11.4 15.9"/><path fill="#F3DD90" d="M49.8 50.1l-.3.3-12.4-15.2M49.8 50.1l-.3.3 12.8 14.9"/><path fill="#F3DD90" d="M49.8 50.1l-.3.3-13.7-14M49.8 50.1l-.3.3 14.1 13.7"/><path fill="#F3DD90" d="M49.8 50.1l-.3.3-14.9-12.8M49.8 50.1l-.2.3 15.1 12.5"/><path fill="#F3DD90" d="M49.8 50.1l-.2.3-16-11.4M49.8 50.1l-.2.3 16.2 11.1"/><path fill="#F3DD90" d="M49.8 50.1l-.2.3-16.9-10"/><path fill="#F3DD90" d="M49.8 50.1l-.2.3L66.7 60"/><path fill="#F3DD90" d="M49.8 50.1l-.2.3-17.7-8.5"/><path fill="#F3DD90" d="M49.8 50.1l-.2.3 17.9 8.1"/><path fill="#F3DD90" d="M49.7 50l-.1.4-18.4-6.9"/><path fill="#F3DD90" d="M49.8 50l-.2.4 18.5 6.5"/><path fill="#F3DD90" d="M49.7 50l-.1.4-18.9-5.2M49.7 50l-.1.4 19 4.9"/><path fill="#F3DD90" d="M49.7 50l-.1.4-19.2-3.6M49.7 50v.4L69 53.6"/><path fill="#F3DD90" d="M49.7 50v.4l-19.6-1.9M49.7 50v.4l19.5 1.5"/><g><path fill="#F3DD90" d="M49.7 50v.4l-19.6-.2M49.7 50v.4l19.6-.2"/></g><g><path fill="#F3DD90" d="M49.7 50v.4l-19.6 1.5M49.7 50v.4l19.5-1.9"/></g><g><path fill="#F3DD90" d="M49.6 50l.1.4-19.3 3.2M49.7 50v.4L69 46.8"/></g><g><path fill="#F3DD90" d="M49.6 50l.1.4-19 4.9"/><path fill="#F3DD90" d="M49.6 50l.1.4 18.9-5.2"/></g><g><path fill="#F3DD90" d="M49.6 50l.1.4-18.5 6.5M49.6 50l.2.4 18.3-6.9"/></g><g><path fill="#F3DD90" d="M49.6 50.1l.2.3-17.9 8.1"/><path fill="#F3DD90" d="M49.6 50.1l.2.3 17.7-8.5"/></g><g><path fill="#F3DD90" d="M49.6 50.1l.2.3L32.7 60"/><path fill="#F3DD90" d="M49.6 50.1l.2.3 16.9-10"/></g><g><path fill="#F3DD90" d="M49.6 50.1l.2.3-16.2 11.1"/><path fill="#F3DD90" d="M49.6 50.1l.2.3 16-11.4"/></g><g><path fill="#F3DD90" d="M49.5 50.1l.3.3-15.2 12.5M49.6 50.1l.2.3 14.9-12.8"/></g><g><path fill="#F3DD90" d="M49.5 50.1l.3.3-14 13.7"/><path fill="#F3DD90" d="M49.5 50.1l.3.3 13.8-14"/></g><g><path fill="#F3DD90" d="M49.5 50.1l.3.3-12.7 14.9"/><path fill="#F3DD90" d="M49.5 50.1l.3.3 12.5-15.2"/></g><g><path fill="#F3DD90" d="M49.5 50.1l.3.3-11.4 15.9M49.5 50.1l.3.2 11.1-16.1"/></g><g><path fill="#F3DD90" d="M49.5 50.1l.4.2-10 16.9"/><path fill="#F3DD90" d="M49.5 50.1l.4.2 9.6-17.1"/></g><g><path fill="#F3DD90" d="M49.5 50.2l.4.1L41.4 68M49.5 50.1l.4.2L58 32.5"/></g><g><path fill="#F3DD90" d="M49.5 50.2l.4.1L43 68.7"/><path fill="#F3DD90" d="M49.5 50.2l.4.1 6.5-18.5"/></g><g><path fill="#F3DD90" d="M49.5 50.2l.4.1-5.3 18.9"/><path fill="#F3DD90" d="M49.5 50.2l.4.1 4.9-19"/></g><g><path fill="#F3DD90" d="M49.5 50.2l.4.1-3.6 19.3"/><path fill="#F3DD90" d="M49.5 50.2l.4.1 3.2-19.4"/></g><g><path fill="#F3DD90" d="M49.5 50.2l.4.1L48 69.8M49.5 50.2h.4l1.5-19.5"/></g></g><g><path fill="#FCF7EC" d="M60.1 33c-.2-.2-.5-.3-.7-.2l-1.4.3c-.2-.1-.4-.1-.6 0-.2.1-.3.2-.4.4-.1-.2-.3-.4-.5-.6 0-.2.1-.3 0-.4 0-.5-.3-.9-.7-1.1-.1-.1-.4-.3-.6-.6l-.1-.1c-.2-.2-.5-.3-.7-.2h-.1c-.3.1-.7.2-.8.2-.3 0-.6.1-.8.3v-.4-.1c-.1-.7-.5-1.2-1.3-1.8-.4-.3-.8-.7-1-.9-.3-.3-.9-.3-1.2 0-.2.2-.6.6-1 .9-.8.5-1.3 1.1-1.3 1.8v.5c-.2-.2-.5-.3-.8-.3-.1 0-.5-.1-.8-.2h-.1c-.3-.1-.5 0-.7.2l-.1.1-.6.6c-.4.3-.7.7-.7 1.1v.4l-.6.6c0-.2-.2-.4-.4-.5-.2-.1-.4-.1-.6 0l-1.5-.3c-.3-.1-.6 0-.7.2-.2.2-.2.5-.1.8l.2.3c.1.1.2.4.5.8.7 1.3 3.3 5.7 3.5 6 0 0 .1 0 .2.1 1.1.8 4.5.7 6.1.7 1.6 0 3.2-.1 4.4-.3 1.1-.2 1.8.1 2-.6.3-.6 2.6-4.6 3.4-5.9l.7-1.2c.1-.1.1-.4-.1-.6z"/></g><g><path fill="#FCF7EC" d="M79.4 39.1c-.2-.4-2.9-.8-3.3-.7-18.8 3.4-33.5 3.4-52.4-.1-.4-.1-3.3.4-3.5.8-3.4 6.9-3.5 15.1-.3 22 0 .1.1.2.1.4 0 0 0 .1.1.1 0 0 0 .1.1.1h.1c.7.4 3 .8 3.3.8 18.8-3.5 33.8-3.5 52.6 0 .4.1 3-.3 3.2-.7 3.5-7.1 3.5-15.6 0-22.7z"/></g><g><path fill="#F36D3F" d="M79.4 39.1c-19.6 3.7-39.5 3.7-59.2 0-3.5 7.1-3.5 15.5 0 22.6 0-.1 14.8-2.9 29.6-2.7 14.9-.2 29.6 2.8 29.6 2.8 3.5-7.1 3.5-15.6 0-22.7z"/></g><g><path fill="#C9543E" d="M80 40.3c-19.6 3.7-46.4 2.8-60.2-.1 0-.3-4.8 9.5-.1 20.4 0-.1 15.3-2.7 30.1-2.4 14.8-.2 30.1 2.6 30.1 2.6 2.8-6.6 2.9-14 .1-20.5z"/></g><g><path fill="#F3BA50" d="M49.8 57.1c-13.6-.2-27.8 1.8-29.9 2.2v.4c2.2-.4 16.3-2.5 29.9-2.3 13.5-.1 27.4 1.9 29.7 2.4v-.4c-2.3-.5-16.2-2.4-29.7-2.3z"/></g><g><path fill="#F3BA50" d="M49.8 43.6c-13.6.2-27.8-1.8-29.9-2.2V41c2.2.4 16.3 2.5 29.9 2.3 13.5.1 27.4-1.9 29.7-2.4v.4c-2.3.5-16.2 2.5-29.7 2.3z"/></g><g><path fill="#953D2A" d="M54.8 56.4c-1.4 0-3.2-.7-3.2-4v-.2-.2c0-.3 0-.6-.1-.7l-.2-.4 2.4-1.3v3.1c0 .7.1 1.2.4 1.5.3.3.7.4.9.4.2 0 .3 0 .4-.1.3-.2.7-.6.7-1.5v-.4-.4c0-.6 0-1.4-.2-1.9 0-.1-.1-.2-.2-.3v.8l-.2.1c-.1.1-.3.2-.4.3-.2.1-.4.3-.7.5l-.4.1v-.6-.2-1.6c-.2-.1.1-.7-.1-1-.3-.5-1-.7-1-1.4 0-.3.1-1.5.8-2 .4-.3.9-.4 1.2-.4h.3c1.5.2 1.6 1.7 1.6 2.3 0 .7-.1 1.2-.3 1.6 1.6.3 1.7 2.1 1.7 2.7 0 .6.1 1.8 0 2.6-.3 1.8-1.9 2.6-3.4 2.6m.1-10.1c-.1 0-.2.4-.2.9s.1.9.2.9.2-.3.2-.9c0-.5-.1-.9-.2-.9M31.2 56.4c.4 0 .8-.1 1.2-.3.9-.5 1.3-1.5 1.3-2.9v-.1-.6-.8-.5c0-1.2-.5-1.8-1-2.4-.4-.4-.6-.8-.8-1.1-.1-.2-.2-.5-.2-.7v-.7-.9-.4l.1-.6-.5.2c-.5.2-1 .5-1.5.8l-.7.4.3.4v.1l.1.1c.1.2.1.4.1.7 0 .3 0 .7.1 1 .1.3.2.5.4.8 0 .1.1.1.1.2.1.2.3.5.5.7.4.5.8 1 .9 1.8V52.4c0 1.6-.1 2-.1 2.1-.1.2-.1.3-.3.3-.1 0-.2-.1-.2-.1-.1-.3-.2-1.1-.2-2.2V50.7l-.5.2c-.2.1-1.4.7-1.5.8l-.3.2.2.3v.1c.1.2.1.3.1.7 0 .9.1 1.6.4 2.3.6.6 1.3 1.1 2 1.1m29.8 0c.4 0 .8-.1 1.2-.3.9-.5 1.3-1.5 1.3-2.9v-.1-.6-.8-.5c0-1.2-.5-1.8-1-2.4-.3-.4-.6-.8-.8-1.1-.1-.2-.2-.5-.2-.7v-.7-.9-.4l.1-.6-.5.2c-.5.2-1 .5-1.5.8l-.7.4.3.4v.1l.1.1c0 .2.1.4.1.7 0 .3 0 .7.1 1 .1.3.2.5.4.8 0 .1.1.1.1.2.1.2.3.5.5.7.4.5.8 1 .9 1.8V52.4c0 1.6-.1 2-.1 2.1 0 .2-.1.3-.3.3-.1 0-.1-.1-.2-.1-.1-.3-.2-1.1-.2-2.2V50.7l-.5.2c-.2.1-1.4.7-1.5.8l-.3.2.2.3v.1c.1.2.1.3.1.7 0 .9.1 1.6.4 2.3.5.6 1.2 1.1 2 1.1m-17.4 0c.4 0 .8-.1 1.2-.3.9-.5 1.3-1.5 1.3-2.9v-.1-.6-.8-.5c0-1.2-.5-1.8-1-2.4-.4-.4-.6-.8-.8-1.1-.1-.2-.2-.5-.2-.7v-.7-.9-.4l.1-.6-.5.2c-.5.2-1 .5-1.5.8l-.7.4.3.4v.1l.1.1c.1.2.1.4.1.7 0 .3 0 .7.1 1 .1.3.2.5.4.8 0 .1.1.1.1.2.1.2.3.5.5.7.4.5.8 1 .9 1.8V52.4c0 1.6-.1 2-.1 2.1-.1.2-.1.3-.3.3-.1 0-.2-.1-.2-.1-.1-.3-.2-1.1-.2-2.2V50.7l-.5.2c-.2.1-1.4.7-1.5.8H41l.2.3v.1c.1.2.1.3.1.7 0 .9.1 1.6.4 2.3.4.8 1.1 1.3 1.9 1.3m32.8-.3l.1-.2c.2-.5.4-1.9.4-3.5v-3.6-.6c0-.6-.1-1.5-.4-2.1-.2-.6-.9-1.6-2.1-1.6-1.3 0-1.9 1-2.1 1.6-.3.6-.4 1.5-.4 2.1v4.2c0 1.6.1 3 .4 3.5l.1.2h2.1l-.1-.5c-.1-.5-.2-2-.2-2.5v-.6c0-1.4 0-5 .1-5.6.1-.2.1-.2.2-.2s.1 0 .2.2c.1.6.1 4.2.1 5.6v.6c0 .5-.1 2-.2 2.5l-.1.5h1.9zm-5.8.1l.1-.1c.3-.3.5-1 .5-1.6v-.2-1.2V52 51.7c0-1.5-.6-2.6-1.5-2.8h-.4c-.7 0-1.2.4-1.4.8-.2-.4-.8-.6-1.2-.7l.3-.1c.1 0 .2-.1.2-.2.1 0 .1-.1.2-.1.8-.5 2.2-1.3 2.3-3.4v-1.1l-.9.3c-.4.1-.7.3-1.1.4l-.4.1.2.4c.2.4 0 .6-.1.6l-.9.6c-1 .6-2.1 1.3-2.3 3.1-.1.7-.1 1.9-.1 2.5 0 3.6.4 3.8.5 3.9h2.2l-.3-.6c-.5-.3-.5-2.4-.4-3.8 0-.5.2-.5.3-.5.1 0 .2.2.2.9v2.2l1.9-1.3v-.2-.7c0-.7.1-1 .3-1 .1 0 .1 0 .1.1.1.2.1.6.1 1v2.4c0 .3-.1.8-.2 1l-.2.5h1.8l.2.2zm-44.7.1c-.7 0-1.3-.2-1.6-.6-.6-.7-.7-1.8-.7-3.2v-.6c0-.9 0-2 .1-3.2v-.4c0-.5 0-1 .1-1.5.2-1.5 1.3-2 1.9-2 .3 0 .5.1.8.2.2.1.5.2.7.2.2 0 .5-.1.7-.3l.7-.5-.3.9c-.3.5-.7 1.7-.7 1.7l-.1.2h-.1c-.1 0-.2.1-.3.1-.4 0-.6-.2-.9-.3-.1-.1-.1-.1-.2-.1s-.1-.1-.2-.1c0 0-.1.1-.1.2v1.8c.3-.3.6-.5 1.1-.5.9 0 1.3 1 1.4 1.6.1.7.1 1.2.1 1.6V52.1c0 1 0 2.1-.3 2.9-.3.8-1.1 1.3-2.1 1.3zm.2-6c-.2 0-.4.3-.4 2v1c0 .7.1 1.1.2 1.1s.2 0 .2-.1c.1-.2.1-.5.2-1.1 0-.5.1-2.1 0-2.5 0-.3-.1-.4-.2-.4zm22.8 6.1c-.5 0-1-.2-1.4-.5-.7-.6-.9-1.5-.9-3.3v-.8-.4-.6-1.3-2.4c0-.2 0-.7-.1-.9l-.2-.2 2.5-1.7v3.9l.5-1H51l-.9 1.5c.2.1.5.2.8.6.6.9.4 3.8.3 4.4-.1.8-.3 1.9-1.2 2.5-.1 0-.6.2-1.1.2m.2-6c-.2 0-.4.2-.4 2v1c0 1 .2 1.2.3 1.2.1 0 .2 0 .2-.1.1-.2.1-.5.2-1.1 0-.5.1-2.1 0-2.5-.1-.5-.2-.5-.3-.5m-11.8 6c-1.4 0-3.2-.7-3.2-4v-.2-.2c0-.3 0-.6-.1-.7l-.2-.4 2.4-1.3v3.1c0 .7.2 1.2.4 1.5.3.3.7.4.9.4.2 0 .3 0 .5-.1.3-.2.7-.6.7-1.5v-.4-.4c0-.6 0-1.4-.2-1.9 0-.1-.1-.2-.2-.3v.8l-.3.1c-.1.1-.3.2-.4.3-.2.1-.4.3-.7.5l-.4.3v-.6-.2-1.6c-.2-.1-.2-.5-.4-.9-.3-.5-.7-.9-.7-1.5 0-.3.1-1.5.8-2 .4-.3.9-.4 1.2-.4h.3c1.5.2 1.6 1.7 1.6 2.3 0 .7-.1 1.2-.3 1.6 1.6.3 1.7 2.1 1.7 2.7 0 .6.1 1.8 0 2.6-.3 1.6-1.9 2.4-3.4 2.4m.1-10.1c-.1 0-.2.4-.2.9s.1.9.2.9.2-.3.2-.9c0-.5-.1-.9-.2-.9"/></g><g><path fill="#F3BA50" d="M38.6 48c.3-.4.4-.9.3-1.6 0-.5-.1-2.1-1.6-2.2H37c-.3 0-.8.1-1.3.4-.7.6-.8 1.7-.8 2 0 .7 0 1.3.3 1.8.2.3.5.5.7.6-.1.5-.1 1 0 1.6v.2c0 .1.1.2.2.3h.4c.3-.2.5-.3.7-.5.1-.1.2-.2.4-.2.1-.1.2-.2.2-.4v-.4l.2.2c.2.5.2 1.3.2 1.9v.8c0 .9-.4 1.3-.7 1.5-.1 0-.2.1-.4.1-.3 0-1.3-.1-1.3-1.9v-1.4-1.2c0-.1-.1-.3-.2-.3s-.1-.1-.2-.1h-.1l-1.6.8c-.1 0-.2.1-.2.2v.3c.1.1.1.5.1.7v.7c0 3.1 1.7 3.7 3.2 3.7 1.5 0 3.1-.8 3.4-2.6.1-.7.1-1.6 0-2.6 0-.4 0-2.1-1.6-2.4zm-1.6-.4s-.1-.1-.1-.9c0-.7.1-.9.1-.9s.2.1.2.9c-.1.8-.2.9-.2.9zM32.3 48.4c-.3-.4-.6-.8-.8-1.1-.1-.2-.2-.5-.2-.7v-.7-.9-.3c0-.1 0-.3-.1-.4-.1-.1-.1-.1-.2-.1h-.1c-.6.3-1.1.6-1.7.8l-.2.1c-.1 0-.2.1-.2.2s0 .2.1.3v.1l.1.1c.1.2.1.5.1.8 0 .3 0 .7.1.9.1.3.2.5.4.8 0 .1.1.1.1.2.1.2.3.5.5.7.4.5.8 1 .9 1.8V51.8c0 1.6-.1 2-.1 2.2-.1.3-.1.3-.2.3s-.1 0-.1-.1c-.2-.5-.2-1.8-.2-2.3v-1.2c0-.1-.1-.3-.2-.3s-.1-.1-.2-.1H30c-.3.2-1.4.7-1.5.8-.1.1-.2.3-.1.5v.2c.1.2.1.3.1.7 0 .9.1 1.6.4 2.3.4.7 1.1 1.2 1.9 1.2.4 0 .8-.1 1.2-.3.9-.5 1.3-1.5 1.3-2.9v-.1-.6-.8-.5c0-1.2-.5-1.9-1-2.4zM76.4 48.4v-.6c0-.6-.1-1.5-.4-2.1-.3-.6-.9-1.6-2.2-1.6-1.3 0-1.9 1-2.1 1.6-.2.6-.4 1.5-.4 2.1V52c0 1.6.1 3 .3 3.4.1.1.2.2.3.2h1.5c.1 0 .2-.1.3-.1.1-.1.1-.2.1-.3-.1-.6-.2-2-.2-2.5v-.6c0-1.4 0-5 .1-5.6.1-.2.1-.2.2-.2s.1 0 .2.2c.1.6.1 4.3.1 5.6v.6c0 .5-.1 2-.2 2.6 0 .1 0 .2.1.3.1.1.2.1.3.1h1.5c.1 0 .2-.1.3-.2.2-.5.3-1.9.3-3.4-.1-1.3-.1-2.9-.1-3.7zM27.9 50.9c0-.4 0-.9-.1-1.6-.1-.8-.6-1.6-1.5-1.6-.4 0-.7.2-1 .4v-1.7-.2s.1 0 .1.1c.1 0 .1.1.2.1.2.1.5.3.9.3.1 0 .2 0 .4-.1.1 0 .2-.1.2-.2 0 0 .4-1.2.6-1.7 0-.1 0-.3-.1-.4-.1-.1-.1-.1-.2-.1s-.1 0-.2.1c-.2.1-.5.3-.7.3-.2 0-.5-.1-.7-.2-.3-.1-.5-.2-.8-.2-.5 0-1.7.5-1.9 2-.1.4-.1.9-.1 1.4v.4c0 1.3-.1 2.3-.1 3.2v.6c0 1.4.1 2.5.7 3.2.4.4.9.6 1.7.7 1 0 1.8-.5 2.2-1.4.3-.7.3-1.8.3-2.8v-.2c.1-.1.1-.2.1-.4zm-2 2c0 1.1-.2 1.2-.3 1.2-.1 0-.2-.1-.2-1.1v-.5-.5c0-1.4.1-2 .4-2.1 0 0 .1 0 .2.6-.1.4-.1 1.9-.1 2.4zM49.7 48.2l.5-1c.1-.1.1-.3 0-.4-.1-.1-.2-.2-.3-.2H49c-.1 0-.2.1-.3.2l-.4.7v-3.1c0-.1-.1-.2-.2-.3h-.2c-.1 0-.1 0-.2.1l-1.8 1.2c.1 0 .1.1.1.2v.3c.1.2.1.7.1.9v5.5c0 1.7.2 2.7.9 3.2.4.4.9.5 1.4.5.6 0 1.1-.2 1.2-.3 1-.5 1.2-1.6 1.2-2.4 0-.6.2-3.5-.3-4.4-.3-.5-.6-.6-.8-.7zm-.9 4.7c-.1 1.1-.2 1.2-.3 1.2 0 0-.2 0-.2-1.2v-.5-.5c0-1.7.2-2 .4-2 0 0 .1 0 .2.5 0 .5 0 2-.1 2.5zM63 50.7c0-1.1-.5-1.8-1-2.3-.4-.4-.6-.8-.8-1.1-.1-.2-.2-.5-.2-.7v-.7-.9-.4c0-.1 0-.3-.1-.3s-.1-.1-.2-.1h-.1c-.5.3-1.1.5-1.6.8l-.2.1c-.1 0-.2.1-.2.2s0 .2.1.3l.1.1.1.1c.1.2.1.5.1.8 0 .3 0 .7.1.9.1.3.2.5.4.8l.1.1c.1.2.3.5.5.7.4.5.8 1 .9 1.8V51.7c0 1.6-.1 2-.1 2.2-.1.3-.1.3-.2.3s-.1 0-.1-.1c-.1-.3-.2-1.1-.2-2.3v-1.2c0-.1 0-.3-.1-.3s-.1-.1-.2-.1h-.2c-.3.2-1.4.7-1.5.8-.1.1-.2.3-.1.5v.2c.1.2.1.4.1.7 0 .9.1 1.6.4 2.3.4.7 1.1 1.2 1.9 1.2.4 0 .8-.1 1.2-.3.9-.5 1.3-1.5 1.3-2.9v-.1-.7-.6-.3l-.2-.3zM56.1 48c.2-.4.4-.9.3-1.6 0-.5-.1-2.1-1.6-2.2h-.3c-.3 0-.8.1-1.3.4-.7.6-.8 1.7-.8 2 0 .7 0 1.3.3 1.8.2.3.5.5.8.6-.1.5-.1 1 0 1.6v.2c0 .1.1.2.2.3h.4c.3-.2.5-.3.7-.5.1-.1.2-.2.4-.2.1-.1.2-.2.2-.4v-.4l.2.2c.2.5.2 1.3.2 1.9v.8c0 1-.4 1.4-.7 1.5-.1.1-.3.1-.4.1-.3 0-1.3-.1-1.3-1.9v-1.5-1.1c0-.1-.1-.2-.2-.3-.1 0-.1-.1-.2-.1h-.2l-1.6.8c-.1 0-.2.1-.2.2s0 .2.1.3c.1.1.1.5.1.8v.7c0 3.1 1.7 3.7 3.2 3.7 1.5 0 3.1-.8 3.4-2.7.1-.7.1-1.7 0-2.6 0-.3-.1-2.1-1.7-2.4zm-1.6-.4s-.1-.1-.1-.9c0-.7.1-.9.1-.9s.1.1.1.9-.1.9-.1.9zM70.7 51.4V51.1c0-1.5-.6-2.6-1.5-2.8h-.4c-.7 0-1.1.4-1.4.8-.2-.3-.5-.6-.9-.7.1-.1.2-.1.3-.2.1 0 .1-.1.2-.1.8-.4 2.2-1.3 2.3-3.4v-.6c0-.1-.1-.2-.1-.3-.1 0-.1-.1-.2-.1h-.1l-.5.2c-.4.1-.7.3-1.1.4-.1 0-.2.1-.2.2v.3c.1.3 0 .6-.1.7l-.9.6c-1 .6-2.1 1.3-2.3 3.1-.1.7-.1 1.9-.1 2.5 0 3.6.4 3.8.5 3.9h1.6c.1 0 .2-.1.3-.2.1-.1.1-.2 0-.4-.2-.5-.2-2.7-.1-4 0-.5.2-.5.2-.5h.1c.1.1.1.7.1.9V53c0 .1.1.2.2.3h.2c.1 0 .1 0 .2-.1l1.3-.9c.1-.1.2-.2.2-.3v-.7c0-.3 0-1 .2-1h.1c.1.1.1.7.1 1v2.4c0 .3-.1.8-.2 1-.1.1 0 .2 0 .3.1.1.2.2.3.2H70.3c.1 0 .2 0 .2-.1.3-.3.4-1 .4-1.6v-.2-1.2c-.2 0-.2-.4-.2-.7zM44.7 48.4c-.3-.4-.6-.8-.8-1.1-.1-.2-.2-.5-.2-.7v-.7-.9-.4c0-.1 0-.3-.1-.3-.1-.1-.1-.1-.2-.1h-.1c-.6.3-1.1.6-1.6.8l-.2.1c-.1 0-.2.1-.2.2s0 .2.1.3l.1.1.1.1c.1.2.1.5.1.8 0 .3 0 .7.1.9.1.3.2.5.4.7 0 .1.1.1.1.2.1.2.3.5.5.7.4.5.8 1 .9 1.8V51.7c0 1.6-.1 2-.1 2.2-.1.3-.1.3-.2.3s-.1 0-.1-.1c-.2-.5-.2-1.8-.2-2.2v-1.2c0-.1 0-.3-.1-.3s-.1-.1-.2-.1h-.2c-.6.1-1.6.7-1.8.7-.2.1-.2.3-.1.5 0 0 0 .1.1.1.1.2.1.4.1.7 0 .9.1 1.6.4 2.3.4.7 1.1 1.2 1.9 1.2.4 0 .8-.1 1.2-.3.9-.5 1.3-1.5 1.3-2.9v-.1-.6-.8-.5c-.1-1-.5-1.7-1-2.2z"/></g><g><path fill="#FCF7EC" d="M28.7 51.5c0-.1-.1-.1-.1-.2.1-.1 1.5-.8 1.5-.8v1.2c0 .5 0 1.8.2 2.4.1.2.3.3.5.3.3 0 .5-.3.5-.6.1-.4.1-2 .1-2.3v-.8c-.2-1.2-.9-1.8-1.4-2.6-.2-.3-.4-.5-.4-.8-.1-.5 0-1.3-.2-1.8-.1-.1-.1-.2-.2-.3.6-.3 1.2-.7 1.8-1v2c0 .3.1.6.2.9.2.5.5.9.8 1.2.5.5.8 1.1.9 2.1v1.9c0 1.3-.4 2.1-1.1 2.6-.3.2-.7.3-1 .3-.7 0-1.3-.4-1.6-1-.3-.6-.4-1.3-.4-2.1 0-.1 0-.3-.1-.6m29.8 0c.1.3.1.5.1.9 0 .8.1 1.5.4 2.1.3.6.9 1 1.6 1 .3 0 .7-.1 1-.3.7-.5 1.1-1.3 1.1-2.6v-.1-1.4-.4c0-1-.4-1.6-.9-2.1-.3-.4-.6-.8-.8-1.2-.1-.3-.2-.6-.2-.9v-1.6-.4c-.6.3-1.2.6-1.8 1 0 .1.1.1.2.3.2.4.1 1.2.2 1.8.1.3.3.5.4.8.4.8 1.2 1.4 1.4 2.6v.8c0 .3 0 1.9-.1 2.3-.1.3-.2.5-.5.6-.2 0-.4-.1-.5-.3-.2-.6-.2-1.9-.2-2.4v-1.2s-1.4.7-1.5.8c0-.2 0-.1.1-.1m-17.4 0c.1.3.1.5.1.9 0 .8.1 1.5.4 2.1.3.6.9 1 1.6 1 .3 0 .7-.1 1-.3.7-.5 1.1-1.3 1.1-2.6v-.1-1.4-.4c0-1-.4-1.6-.9-2.1-.3-.4-.6-.8-.8-1.2-.1-.3-.2-.6-.2-.9v-1.6-.4c-.6.3-1.2.6-1.8 1 0 .1.1.1.2.3.2.4.1 1.2.2 1.8.1.3.3.5.4.8.5.8 1.2 1.4 1.4 2.6v.8c0 .3 0 1.9-.1 2.3-.1.3-.2.5-.5.6-.2 0-.4-.1-.5-.3-.2-.6-.2-1.9-.2-2.4v-1.2s-1.4.7-1.5.8c0-.2.1-.1.1-.1m32.7-5.7c.3 0 .4.1.5.5.2.8.1 5.5.1 6.3 0 0-.1 1.9-.2 2.6h1.5c.2-.4.3-1.6.3-3.3v-4.2c0-.5-.1-1.4-.3-1.9-.3-.6-.8-1.4-1.8-1.4s-1.6.7-1.8 1.4c-.2.6-.4 1.4-.4 1.9v4.2c0 1.7.2 2.9.3 3.3h1.5c-.2-.7-.2-2.6-.2-2.6 0-.8-.1-5.5.1-6.3 0-.4.2-.5.4-.5zm-6.8-.1c-1.2 1-2.8 1.4-3.1 3.5-.1.7-.1 1.8-.1 2.5 0 2.4.2 3.5.3 3.5h1.5c-.4-.8-.2-3.8-.2-4.2 0-.6.3-.8.6-.8.6 0 .5.9.5 1.3v1.6l1.3-.9v-.7c0-.5 0-1.3.6-1.3.7 0 .6 1 .6 1.6v2.3s-.1.8-.2 1.1h1.3c.2-.2.4-.8.4-1.4v-.2-2.3V51c0-1.3-.5-2.3-1.3-2.4h-.3c-1.2 0-1.5 1.4-1.5 1.4s-.1-1.2-.9-1.3c-.7-.1-1.1.6-1.1.6s0-.8 1.2-1.5c.7-.4 2.3-1.1 2.3-3.2V44c-.5.2-1.1.4-1.6.6.1.5-.1.9-.3 1.1M27.6 51v.6c0 1 0 2-.3 2.7-.4 1.1-1.4 1.2-1.9 1.2-.6 0-1.1-.2-1.4-.5-.5-.6-.6-1.6-.6-3v-.6c0-1 0-2.2.1-3.2 0-.7 0-1.3.1-1.8.2-1.3 1.2-1.7 1.6-1.7.5 0 .9.4 1.5.4.3 0 .7-.2.9-.3-.2.5-.6 1.7-.6 1.7h-.3c-.4 0-.7-.3-.9-.4-.1-.1-.2-.1-.3-.1-.2 0-.4.2-.4.5v2.8s.6-1.1 1.4-1.1c.9 0 1.1 1.1 1.1 1.3V51m-1.4 2c0-.5.1-2.1 0-2.6 0-.2-.1-1-.6-.9-.5 0-.7.7-.7 2.4V53c0 .5 0 1.5.5 1.5.6 0 .8-.3.8-1.5m23 0c0-.5.1-2.1 0-2.6 0-.2-.1-.9-.5-.9-.5 0-.7.7-.7 2.4V53c0 .5 0 1.5.6 1.5.3 0 .5-.3.6-1.5m1-4c.5.8.3 4.1.3 4.1-.1 1-.4 1.8-1 2.1-.2.1-1.3.6-2.2-.2-.6-.5-.8-1.5-.8-3v-1.1V49v-2.4c0-.4 0-.8-.2-1.1l1.8-1.2v4.5l1-1.9h.9l-.9 1.6c0 .2.6-.2 1.1.5m-10.3 1.7c0 .7.1 1.8 0 2.5-.2 1.7-1.7 2.3-3 2.3-2.9 0-2.9-2.5-2.9-3.4v-.7c0-.4 0-.7-.2-1l1.6-.8v2.6c0 2.3 1.6 2.4 2.2 2.1.4-.2.9-.8.9-1.8v-.8c0-.7 0-1.5-.3-2.1-.2-.5-.7-.6-.7-.6s-.1.4 0 1.1c-.4.3-.7.5-1.1.7 0-.3-.1-1.5.1-2 0 0-.6-.1-.9-.6-.2-.3-.3-.9-.3-1.6 0-.4.1-1.3.6-1.7.5-.4 1.1-.4 1.3-.3 1.2.1 1.3 1.3 1.3 1.9 0 .8-.2 1.4-.6 1.6v.2c1.9 0 2 1.7 2 2.4m-2.4-4c0-.7-.1-1.2-.5-1.2s-.5.6-.5 1.2c0 .7.1 1.2.5 1.2s.5-.5.5-1.2m20 4c0 .7.1 1.8 0 2.5-.2 1.7-1.7 2.3-3.1 2.3-2.8 0-2.9-2.6-2.9-3.4v-.7c0-.4 0-.7-.2-1l1.6-.8v2.6c0 2.3 1.6 2.4 2.2 2.1.4-.2.9-.8.9-1.8v-.8c0-.7 0-1.5-.3-2.1-.2-.5-.7-.6-.7-.6s-.1.4 0 1.1c-.4.3-.7.5-1.1.7 0-.3-.1-1.5.1-2 0 0-.6-.1-.9-.6-.2-.3-.3-.9-.3-1.6 0-.4.1-1.3.6-1.7.5-.4 1.1-.4 1.3-.3 1.2.1 1.3 1.3 1.3 1.9 0 .8-.2 1.4-.6 1.6v.2c2 0 2 1.7 2.1 2.4m-2.5-4c0-.7-.1-1.2-.5-1.2s-.5.6-.5 1.2c0 .7.1 1.2.5 1.2s.5-.5.5-1.2"/></g><g><path fill="#DEA858" d="M35.7 57.6c9.4-.6 18.9-.6 28.4 0-.1 1.5-.2 2.9-.3 4.4-9.2-1.6-18.7-1.6-27.9 0 0-1.5-.1-2.9-.2-4.4z"/></g><g><path fill="#C9543E" d="M35.7 57.9c9.4-.6 18.9-.6 28.4 0-.1 1.5-.2 2.9-.3 4.4-9.2-1.6-18.7-1.6-27.9 0 0-1.5-.1-2.9-.2-4.4z"/></g><g><path fill="#C9543E" d="M49.7 40.7c-3.6 0-6-.5-6-.9 0 0 0-.1.1-.2-.1-.1-.1-.1-.1-.2 0-.4 2.4-.9 6-.9s6 .5 6 .9c0 0 0 .1-.1.1.1.1.1.1.1.2 0 .6-2.4 1-6 1z"/><path fill="#953D2A" d="M49.7 38.6c3.7 0 6 .5 6 .9 0 0 0 .1-.1.1l-.1.1.1.1.1.1c0 .4-2.3.9-6 .9s-6-.5-6-.9c0 0 0-.1.1-.1l.1-.1-.1-.1c-.1 0-.1-.1-.1-.1.1-.4 2.4-.9 6-.9m0-.1c-3.3 0-6 .4-6 1 0 .1 0 .1.1.2-.1.1-.1.1-.1.2 0 .5 2.7 1 6 1s6-.4 6-1c0-.1 0-.1-.1-.2.1-.1.1-.1.1-.2.1-.6-2.6-1-6-1z"/></g><g><path fill="#C9543E" d="M43.8 38.4h12l1.6-2.7c-1.1-2.2-4.1-3.8-7.6-3.8s-6.4 1.6-7.6 3.8l1.6 2.7z"/></g><g><path fill-rule="evenodd" clip-rule="evenodd" fill="#F3BA50" d="M40 33.3l1.3.3.1.2.4-.2c.1.4.8 2.9 2.3 2.9h.1s.9-.1 1.2-1.2v-.2l-.1.1s-.5.5-1.1.5c-.3 0-.6-.1-.9-.4 0 0-.5-.7-.4-1.4.1-.4.4-.7 1-.9h.1s-.2-.2-.3-.6c0 0 0-.3.3-.5l.9-.8c.4.2 1.1.3 1.1.3.2 0 .4.2.5.3.2.3.1.6.1.6v.1h.4c.7 0 1.1.5 1.1.5.7.9 0 1.7 0 1.7-.3.4-.8.5-1 .5-.3 0-.4-.1-.4-.1l-.2-.1.1.1c.3.3.7.4.9.4h.2c1.3-.4 1.2-1.8 1.2-1.8 0-.9-.7-1.5-.7-1.6-.7-.6-.6-1.5-.6-1.5 0-.6.8-1.1.8-1.1.6-.4 1.4-1.1 1.4-1.1h.2s.8.7 1.4 1.1c0 0 .8.5.8 1.1 0 0 .1.9-.6 1.5 0 0-.7.7-.7 1.6 0 0-.1 1.4 1.2 1.8h.3c.2 0 .6-.1.9-.4l.1-.1H53s-.2.1-.4.1c-.3 0-.7-.1-1-.4 0 0-.7-.8 0-1.8 0 0 .4-.5 1.1-.5h.4v-.1s-.1-.3.1-.6c.1-.2.3-.3.5-.3 0 0 .8-.1 1.1-.3l.9.8c.3.2.3.5.3.5 0 .4-.3.6-.3.6h-.1.1c.5.2.9.5 1 .9.2.7-.4 1.4-.4 1.4-.3.3-.6.4-.9.4-.6 0-1.1-.5-1.1-.5l-.3.1v.2c.3 1.1 1.2 1.2 1.2 1.2h.2c1.6 0 2.2-2.5 2.3-2.9l.4.2.1-.2 1.3-.3-3.8 6.6c-2.2-1-4.9-1.1-6-1.1-1.1 0-3.8.1-6 1.1L40 33.3z"/><path fill="#2E292D" d="M49.7 28.3c.1 0 .1 0 0 0 0 0 .8.7 1.4 1.1 0 0 .8.5.8 1.1 0 0 .1.9-.5 1.4 0 0-.7.7-.7 1.6 0 0-.1 1.4 1.2 1.8h.3c.2 0 .6-.1.9-.4l.3-.3-.4.3s-.2.1-.4.1c-.3 0-.7-.1-1-.4 0 0-.7-.8 0-1.7 0 0 .4-.5 1-.5h.5v-.2s-.1-.3.1-.5c.1-.1.2-.2.5-.3 0 0 .7-.1 1.1-.3l.8.8c.3.2.2.5.2.5 0 .4-.2.5-.3.5l-.2.1.2.1c.5.2.8.5.9.9.2.6-.4 1.3-.4 1.3-.2.3-.5.4-.9.4-.6 0-1.1-.4-1.1-.4l-.1-.3.1.3c.3 1.2 1.2 1.2 1.2 1.2h.2c1.5 0 2.2-2.4 2.4-2.9l.3.2h.1v-.1l.1-.2 1.2-.3-3.7 6.5c-2.2-1-4.9-1.1-6-1.1-1.1 0-3.7.1-5.9 1.1l-3.7-6.5 1.2.3.1.2v.1h.1l.3-.2c.1.6.8 2.9 2.4 2.9h.1s.9-.1 1.2-1.2l.1-.3-.2.2s-.5.4-1.1.4c-.3 0-.6-.1-.9-.4 0 0-.5-.7-.4-1.3.1-.4.4-.7.9-.9l.2-.1H44s-.2-.2-.3-.5c0 0 0-.3.3-.5l.8-.8c.4.2 1.1.3 1.1.3.2 0 .4.1.5.3.1.2.1.5.1.5v.2h.5c.6 0 1 .5 1 .5.7.9 0 1.7 0 1.7-.3.4-.7.4-1 .4-.2 0-.4-.1-.4-.1l-.4-.1.3.3c.3.3.7.4.9.4h.3c1.3-.4 1.2-1.8 1.2-1.8 0-.9-.7-1.6-.7-1.6-.6-.6-.5-1.4-.5-1.4 0-.6.8-1.1.8-1.1.5-.6 1.2-1.3 1.2-1.3m0-.1c-.1 0-.8.7-1.5 1.2 0 0-.8.5-.8 1.2 0 0-.1.9.6 1.5 0 0 .7.7.7 1.5 0 0 .1 1.4-1.1 1.7h-.2c-.2 0-.6-.1-.9-.4 0 0 .2.1.5.1s.7-.1 1.1-.5c0 0 .8-.8 0-1.8 0 0-.4-.5-1.1-.5h-.4s.2-.8-.6-.9c0 0-.8-.2-1.1-.3l-.9.8c-.3.2-.3.6-.3.6 0 .4.3.6.3.6-1.9.8-.6 2.4-.6 2.4.3.3.6.4.9.4.6 0 1.2-.5 1.2-.5-.3 1.1-1.2 1.2-1.2 1.2h-.1c-1.7 0-2.3-3-2.3-3l-.5.2-.1-.2-1.4-.4 3.9 6.8c2.2-1 4.9-1.1 6-1.1 1.1 0 3.8.1 6 1.1l3.9-6.8-1.4.4-.1.2-.5-.2s-.6 3-2.3 3h-.1s-.8-.1-1.2-1.2c0 0 .5.5 1.2.5.3 0 .6-.1.9-.4 0 0 1.3-1.6-.6-2.4 0 0 .3-.2.3-.6 0 0 0-.3-.3-.6l-1-.8c-.3.2-1.1.3-1.1.3-.8.2-.6.9-.6.9h-.4c-.7 0-1.1.5-1.1.5-.7 1 0 1.8 0 1.8.3.4.8.5 1.1.5h.5c-.3.3-.6.4-.9.4h-.2c-1.3-.4-1.1-1.7-1.1-1.7 0-.9.7-1.5.7-1.5.7-.6.6-1.5.6-1.5 0-.6-.8-1.2-.8-1.2-.7-.6-1.5-1.3-1.6-1.3.1 0 0 0 0 0z"/></g><g><path fill="#FFF" d="M48.9 36.9l-.2-.2.2-.2c.3-.2.5-.4.7-.6l.2-.2.2.2c.2.2.4.4.7.6l.2.2-.2.2c-.3.2-.5.4-.7.6l-.2.2-.2-.2c-.2-.2-.4-.4-.7-.6z"/></g><g><path fill="#FFF" d="M50.4 36.7c-.3-.3-.6-.5-.7-.6-.1.2-.4.4-.7.6.3.3.6.5.7.6.2-.1.4-.3.7-.6z"/></g><g><path fill="#F9CE6B" d="M48.9 36.7c.4.3.7.6.8.8.2-.2.4-.5.8-.8-.4-.3-.7-.6-.8-.8-.1.3-.4.5-.8.8z"/></g><g><path fill="#CA9434" d="M49.8 35.9v.8h.8c-.4-.3-.7-.5-.8-.8zM49.8 37.5v-.8H49l.8.8z"/></g><g><path fill="#F3DD90" d="M50 36.7l-.2-.2c0 .1-.1.1-.2.2l.2.2.2-.2z"/></g><g><path fill="#953D2A" d="M49.7 29.8c-.6 0-1 .5-1 1.1 0 .6.5 1.1 1 1.1.6 0 1-.5 1-1.1.1-.6-.4-1.1-1-1.1zm0 2c-.5 0-.8-.4-.8-.9s.4-.9.8-.9c.5 0 .8.4.8.9.1.5-.3.9-.8.9z"/></g><g><path fill="#F9CE6B" d="M45.9 33.4c-.2.2-.3.4-.3.5-.1-.1-.3-.2-.5-.3.2-.2.3-.4.3-.5.1.1.2.2.5.3z"/></g><g><path fill="#CA9434" d="M45.3 33.1l.1.4-.4.1c.2-.2.3-.4.3-.5zM45.6 33.9l-.1-.4.4-.1c-.2.2-.3.4-.3.5z"/></g><g><path fill="#F3DD90" d="M45.3 33.5c0-.1.1-.1.1-.2 0 0 .1.1.2.1-.1.1-.1.1-.1.2 0 0-.1 0-.2-.1z"/></g><g><path fill="#FFF" d="M43.4 38.8v.2l-.1-.1c-.1-.1-.3-.1-.6-.1h-.2l.1-.2c.1-.2.2-.4.2-.5v-.2l.1.1c.1.1.3.1.6.1h.2l-.1.2c-.1.1-.2.3-.2.5z"/></g><g><path fill="#FFF" d="M55.9 38.2l-.1-.2h.2c.2 0 .4-.1.6-.1l.1-.1v.2c0 .2.1.3.2.5l.1.2h-.2c-.2 0-.4.1-.6.1l-.1.1v-.2c0-.1-.1-.3-.2-.5z"/></g><g><path fill="#F36D3F" d="M49.8 38h-.1c-2.3 0-4.5.5-6.3 1.2.1.2.2.3.2.4 1.6-.7 3.8-1.1 6.1-1.1h.2c2.2 0 4.7.5 6.1 1.1.1-.1.1-.3.2-.5-1.9-.7-4-1.1-6.4-1.1z"/></g><g><path fill="#F9CE6B" d="M53.6 33.4c.2.2.3.4.3.5.1-.1.3-.2.5-.3-.2-.2-.3-.4-.3-.5-.1.1-.2.2-.5.3z"/></g><g><path fill="#CA9434" d="M54.2 33.1l-.2.4.4.1c-.1-.2-.2-.4-.2-.5zM53.9 33.9l.1-.4-.4-.1c.2.2.3.4.3.5z"/></g><g><path fill="#F3DD90" d="M54.2 33.5c0-.1-.1-.1-.1-.2 0 0-.1.1-.2.1.1.1.1.1.1.2 0 0 .1 0 .2-.1z"/></g><g><ellipse fill="#C9543E" cx="49.7" cy="30.9" rx=".4" ry=".5"/><ellipse fill="#C9543E" cx="44.1" cy="34.5" rx=".2" ry=".2"/><ellipse fill="#C9543E" cx="47" cy="33.6" rx=".2" ry=".2"/><path fill="#C9543E" d="M46.7 37.5c0 .1-.1.2-.2.2s-.2-.1-.2-.2.1-.2.2-.2.2 0 .2.2z"/><ellipse fill="#C9543E" cx="53" cy="37.5" rx=".2" ry=".2"/><ellipse fill="#C9543E" cx="55.4" cy="34.5" rx=".2" ry=".2"/><ellipse fill="#C9543E" cx="52.5" cy="33.6" rx=".2" ry=".2"/></g><g><path fill="#AA7C2C" d="M48.2 30.6c0-.2.2-.5.7-.8.3-.2.7-.5.9-.7.2.2.5.5.9.7.5.3.7.6.7.8v-.2c0-.2-.2-.5-.7-.8-.3-.2-.7-.5-.9-.7-.2.2-.5.5-.9.7-.5.3-.7.6-.7.8v.2zM45.9 31.8c-.2 0-.7-.2-.8-.2l-.6.6c-.1.1-.2.2-.2.3 0 .2.1.3.3.5-.1-.1-.2-.2-.3-.2-.3-.1-.3-.3-.3-.4 0-.2.2-.3.3-.4.2-.1.6-.5.7-.7.2.1.7.2 1 .3 0 0 .3 0 .4.2.1.1.1.4 0 .6l-.1.1c0 .1-.1.1-.1.2l.1-.2c.1-.2.1-.4 0-.6-.2-.1-.4-.1-.4-.1zM53.7 31.8c.2 0 .7-.2.8-.2l.6.6c.1.1.2.2.2.3 0 .2-.1.3-.3.5.1-.1.2-.2.3-.2.2-.2.3-.4.3-.5 0-.2-.1-.3-.3-.4-.2-.1-.6-.5-.7-.7-.2.1-.7.2-1 .3 0 0-.3 0-.4.2-.1.1-.1.4 0 .6l.1.1c0 .1.1.1.1.2l-.1-.2c-.1-.2-.1-.4 0-.6h.4z"/><path fill="#AA7C2C" d="M45.2 32.4c-.1 0-.1 0 0 0-.1 0-.2-.1-.2-.2s.1-.1.2-.1.1.1.1.2l-.1.1zM54.2 32.2c0-.1 0-.2.1-.2s.2 0 .2.1 0 .2-.1.2h-.1c0 .1-.1 0-.1-.1zM49.6 32.6c0-.1 0-.2.1-.2s.2 0 .2.1 0 .2-.1.2h-.1l-.1-.1zM57.8 35.5l-.1-.1v-.1h.2v.1c.1 0 .1 0-.1.1.1 0 .1 0 0 0zM55.5 37.1c0-.1 0-.1.1-.1s.1 0 .1.1 0 .1-.1.1c0 0-.1 0-.1-.1zm-.8 0c-.1 0-.1-.1-.1-.2s.1-.1.2-.1.1.1.1.2c-.1.1-.1.1-.2.1zm1.7-.3v-.2h.2v.2c0 .1 0 .1-.2 0 .1.1.1 0 0 0zm-2.5-.3v-.2h.2v.2h-.2zm3.3-.3V36s.1-.1.2 0c0 0 .1.1 0 .2h-.2zM53.4 35.8s-.1-.1 0 0l-.1-.1v-.1h.2v.1l-.1.1c.1-.1 0 0 0 0zM52.4 35.9c0-.1 0-.1.1-.1s.1 0 .1.1 0 .1-.1.1l-.1-.1zm-.7.1c-.1 0-.1-.1-.1-.1 0-.1.1-.1.1-.1.1 0 .1.1.1.1 0 .1-.1.1-.1.1zm-.8-.5v-.2h.2v.2c-.1.1-.1.1-.2 0 0 .1 0 .1 0 0zm-.6-.7v-.2h.2v.2h-.1c0 .1-.1 0-.1 0zM50 34c0-.1 0-.1.1-.1s.1 0 .1.1 0 .1-.1.1-.1-.1-.1-.1zm-.4-.7c0-.1 0-.1.1-.1s.1 0 .2.1c0 .1 0 .1-.1.1s-.1-.1-.2-.1zM46.9 36.1c-.1 0-.1-.1-.1-.1 0-.1.1-.1.1-.1.1 0 .1.1.1.1.1 0 0 .1-.1.1.1 0 0 0 0 0zm.8-.1c0-.1 0-.1.1-.1s.1 0 .1.1 0 .1-.1.1c0-.1-.1-.1-.1-.1zm.8-.4v-.2h.2v.2h-.2c.1 0 0 0 0 0zm.5-.7c-.1 0-.1-.1 0-.2 0-.1.1-.1.2-.1s.1.1 0 .2c0 0-.1.1-.2.1.1 0 .1 0 0 0zm.4-.9c-.1 0-.1-.1-.1-.1 0-.1.1-.1.1-.1.1 0 .1.1.1.2h-.1zM46.1 35.8s0-.1 0 0c-.1-.1-.1-.1-.1-.2v-.1h.2v.1c.1.1 0 .1-.1.2.1-.1.1 0 0 0zM43.9 37.2c-.1 0-.1-.1-.1-.1 0-.1.1-.1.1-.1.1 0 .1.1.1.1 0 .1-.1.1-.1.1zm.8-.2c0-.1 0-.1.1-.2.1 0 .1 0 .2.1 0 .1 0 .1-.1.2-.1 0-.2 0-.2-.1zm-1.8-.2c-.1 0-.1-.1 0-.2 0-.1.1-.1.2 0 .1 0 .1.1 0 .2 0 0-.1.1-.2 0 .1.1.1.1 0 0zm2.6-.3v-.2s.1-.1.2 0v.2h-.2zm-3.3-.3V36h.2v.2h-.2c.1 0 0 0 0 0zM41.7 35.5s-.1 0 0 0l-.1-.1v-.1h.2v.1l-.1.1c.1 0 0 0 0 0zM47.9 37.4c0-.1 0-.2.1-.2s.2 0 .2.1 0 .2-.1.2H48l-.1-.1zM44.8 38.1c0-.1 0-.2.1-.2s.2 0 .2.1 0 .2-.1.2h-.1c-.1 0-.1 0-.1-.1zM51.5 37.5c-.1 0-.1 0 0 0-.1 0-.2-.1-.2-.2s.1-.1.2-.1.1.1.1.2l-.1.1zM54.6 38.2s-.1 0 0 0c-.1 0-.2-.1-.2-.2s.1-.1.2-.1.1.1.1.2-.1.1-.1.1z"/><path fill="#AA7C2C" d="M46.1 36.5c2.3.3 3.2-.9 3.6-2 .4 1.1 1.3 2.3 3.6 2 1.4 1.6 2.7 1.2 3.7.5 0 .1.1.2.1.3 0-.1.1-.1.1-.2l-.1-.2-.1-.2v.2c-.5.4-1 .6-1.5.6-.7 0-1.3-.4-2-1.1l-.1-.1h-.7c-1.4 0-2.4-.7-2.8-2v-.1l-.1-.2-.1.2v.1c-.5 1.3-1.4 2-2.8 2H46.1v.1c-.6.7-1.3 1.1-2 1.1-.5 0-1-.2-1.5-.6l-.1-.1-.2.2-.1.2c0 .1.1.1.1.2 0-.1.1-.2.1-.3 1 .6 2.3 1 3.7-.6z"/></g><g><path fill="#953D2A" d="M52.5 33.2c.2 0 .4.2.4.4s-.2.4-.4.4-.4-.2-.4-.4.1-.4.4-.4m0-.1c-.3 0-.5.2-.5.5s.2.5.5.5.5-.2.5-.5c-.1-.3-.3-.5-.5-.5zM49.7 35.7l.1.1c.2.2.4.5.8.7l.1.1-.1.1c-.3.2-.6.5-.8.7l-.1.1-.1-.1c-.2-.2-.5-.5-.8-.7l-.1-.1.1-.1c.3-.2.6-.5.8-.7l.1-.1m0-.1l-.2.2c-.2.2-.4.5-.8.7l-.3.2.3.2c.3.2.6.5.8.7l.2.2.2-.2c.2-.2.4-.5.8-.7l.2-.2-.2-.2c-.3-.2-.6-.5-.8-.7l-.2-.2zM45.3 32.9c.2.2.5.3.8.4h.1l-.1.1c-.2.2-.3.5-.4.7v.1l-.1-.1c-.2-.1-.4-.3-.7-.4h-.1l.1-.1c.1-.2.3-.5.4-.7m-.1-.2l-.1.2c-.1.2-.2.4-.4.6l-.1.2.2.1c.3.1.5.2.7.3l.2.1.1-.2c.1-.2.2-.4.4-.6l.1-.2-.2-.1c-.3-.1-.5-.2-.7-.3l-.2-.1zM44.1 34.1c.2 0 .4.2.4.4s-.2.4-.4.4-.4-.2-.4-.4.2-.4.4-.4m0-.1c-.3 0-.5.2-.5.5s.2.5.5.5.5-.2.5-.5-.2-.5-.5-.5zM47 33.2c.2 0 .4.2.4.4s-.2.4-.4.4-.4-.2-.4-.4c.1-.2.2-.4.4-.4m0-.1c-.3 0-.5.2-.5.5s.2.5.5.5.5-.2.5-.5-.2-.5-.5-.5zM46.5 37.1c.2 0 .4.2.4.4s-.2.4-.4.4-.4-.2-.4-.4c0-.3.2-.4.4-.4m0-.1c-.3 0-.5.2-.5.5s.2.5.5.5.5-.2.5-.5-.2-.5-.5-.5zM53 37.1c.2 0 .4.2.4.4s-.2.4-.4.4-.4-.2-.4-.4c0-.3.2-.4.4-.4m0-.1c-.3 0-.5.2-.5.5s.2.5.5.5.5-.2.5-.5-.3-.5-.5-.5zM55.4 34.1c.2 0 .4.2.4.4s-.2.4-.4.4-.4-.2-.4-.4.2-.4.4-.4m0-.1c-.3 0-.5.2-.5.5s.2.5.5.5.5-.2.5-.5-.2-.5-.5-.5zM54.2 32.9c.1.3.3.5.5.7l.1.1h-.1c-.3.1-.5.2-.7.4l-.1.1v-.1c-.1-.2-.2-.4-.4-.7l-.1-.1h.1c.2-.1.5-.3.7-.4m0-.2l-.2.1c-.2.1-.4.2-.7.3l-.2.1.1.2c.2.2.3.4.4.6l.1.2.2-.1c.2-.1.4-.2.7-.3l.2-.1-.1-.2c-.2-.2-.3-.4-.4-.6l-.1-.2z"/></g><g><path fill="#FCF7EC" d="M35.7 57.3c9.4-.6 19-.6 28.4 0-.1 1.5-.2 2.9-.3 4.4-9.1-1.7-18.6-1.7-27.8 0-.1-1.5-.2-3-.3-4.4z"/></g><g><path fill="#F3BA50" d="M35.7 57.6c9.4-.6 18.9-.6 28.4 0-.1 1.5-.2 2.9-.3 4.4-9.2-1.6-18.7-1.6-27.9 0 0-1.5-.1-2.9-.2-4.4z"/></g><g><path fill="#FCF7EC" d="M39.1 58.3h.2c.5.5 1 1 1.5 1.4 0-.5 0-1-.1-1.5h.2c0 .7.1 1.4.1 2.1h-.1l-1.6-1.6c0 .5 0 1.1.1 1.6h-.2c-.1-.7-.1-1.4-.1-2zM42.5 58.1c.4.7.7 1.4 1.1 2.1h-.4c-.1-.2-.2-.4-.4-.7h-.9c-.1.2-.2.5-.3.7h-.2c.3-.7.6-1.4 1.1-2.1-.1 0-.1 0 0 0zm-.5 1.3h.8c-.1-.3-.3-.5-.4-.8-.2.2-.3.5-.4.8zM45.7 58v.1h-.8V60h-.4v-1.9h-.8V58c.7.1 1.3 0 2 0zM47 58c.3.7.7 1.4 1 2.1h-.4c-.1-.2-.2-.5-.3-.7h-.9c-.1.2-.2.5-.3.7h-.2c.4-.7.7-1.4 1.1-2.1zm-.5 1.2h.8c-.1-.3-.3-.5-.4-.8-.1.3-.3.6-.4.8zM48.5 58h.4v.9c.4-.3.8-.6 1.1-.9h.2c-.4.3-.7.6-1.1.9.5.4.9.8 1.4 1.2H50c-.4-.3-.8-.7-1.2-1v1h-.4c.1-.7.1-1.4.1-2.1zM51.3 59.1v1h-.4v-2h.4v.9h1.1v-.9h.4v2h-.4v-1h-1.1zM55.3 58.1v.1h-.8v1.9h-.4v-1.9h-.8v-.1c.7-.1 1.3-.1 2 0zM56.6 58c.3.7.6 1.4 1 2.1h-.4c-.1-.2-.2-.5-.3-.7H56c-.1.2-.2.5-.4.7h-.2l1.2-2.1zm-.6 1.3h.8c-.1-.3-.2-.5-.4-.8-.1.3-.2.5-.4.8zM58.1 58.1h.8c.1 0 .2 0 .3.1.1 0 .2.1.2.1.1.1.1.1.1.2v.4l-.1.1s-.1.1-.2.1-.1.1-.2.1c.3.3.5.7.8 1h-.4c-.2-.3-.5-.7-.7-1h-.3v1H58c0-.7.1-1.4.1-2.1zm.3 1h.4c.1 0 .1 0 .2-.1.1 0 .1-.1.1-.1v-.2-.2c0-.1-.1-.1-.1-.1l-.1-.1h-.5v.8zM60.3 58.2h.4c0 .7-.1 1.4-.1 2h-.4c.1-.6.1-1.3.1-2z"/></g><g><path fill="#953D2A" d="M49.7 28.3c.1 0 .1 0 0 0 0 0 .8.7 1.4 1.1 0 0 .8.5.8 1.1 0 0 .1.9-.5 1.4 0 0-.7.7-.7 1.6 0 0-.1 1.4 1.2 1.8h.3c.2 0 .6-.1.9-.4l.3-.3-.4.3s-.2.1-.4.1c-.3 0-.7-.1-1-.4 0 0-.7-.8 0-1.7 0 0 .4-.5 1-.5h.5v-.2s-.1-.3.1-.5c.1-.1.2-.2.5-.3 0 0 .7-.1 1.1-.3l.8.8c.3.2.2.5.2.5 0 .4-.2.5-.3.5l-.2.1.2.1c.5.2.8.5.9.9.2.6-.4 1.3-.4 1.3-.2.3-.5.4-.9.4-.6 0-1.1-.4-1.1-.4l-.1-.3.1.3c.3 1.2 1.2 1.2 1.2 1.2h.2c1.5 0 2.2-2.4 2.4-2.9l.3.2h.1v-.1l.1-.2 1.2-.3-3.7 6.5c-2.2-1-4.9-1.1-6-1.1-1.1 0-3.7.1-5.9 1.1l-3.7-6.5 1.2.3.1.2v.1h.1l.3-.2c.1.6.8 2.9 2.4 2.9h.1s.9-.1 1.2-1.2l.1-.3-.2.2s-.5.4-1.1.4c-.3 0-.6-.1-.9-.4 0 0-.5-.7-.4-1.3.1-.4.4-.7.9-.9l.2-.1H44s-.2-.2-.3-.5c0 0 0-.3.3-.5l.8-.8c.4.2 1.1.3 1.1.3.2 0 .4.1.5.3.1.2.1.5.1.5v.2h.5c.6 0 1 .5 1 .5.7.9 0 1.7 0 1.7-.3.4-.7.4-1 .4-.2 0-.4-.1-.4-.1l-.4-.1.3.3c.3.3.7.4.9.4h.3c1.3-.4 1.2-1.8 1.2-1.8 0-.9-.7-1.6-.7-1.6-.6-.6-.5-1.4-.5-1.4 0-.6.8-1.1.8-1.1.5-.6 1.2-1.3 1.2-1.3m0-.1c-.1 0-.8.7-1.5 1.2 0 0-.8.5-.8 1.2 0 0-.1.9.6 1.5 0 0 .7.7.7 1.5 0 0 .1 1.4-1.1 1.7h-.2c-.2 0-.6-.1-.9-.4 0 0 .2.1.5.1s.7-.1 1.1-.5c0 0 .8-.8 0-1.8 0 0-.4-.5-1.1-.5h-.4s.2-.8-.6-.9c0 0-.8-.2-1.1-.3l-.9.8c-.3.2-.3.6-.3.6 0 .4.3.6.3.6-1.9.8-.6 2.4-.6 2.4.3.3.6.4.9.4.6 0 1.2-.5 1.2-.5-.3 1.1-1.2 1.2-1.2 1.2h-.1c-1.7 0-2.3-3-2.3-3l-.5.2-.1-.2-1.4-.4 3.9 6.8c2.2-1 4.9-1.1 6-1.1 1.1 0 3.8.1 6 1.1l3.9-6.8-1.4.4-.1.2-.5-.2s-.6 3-2.3 3h-.1s-.8-.1-1.2-1.2c0 0 .5.5 1.2.5.3 0 .6-.1.9-.4 0 0 1.3-1.6-.6-2.4 0 0 .3-.2.3-.6 0 0 0-.3-.3-.6l-1-.8c-.3.2-1.1.3-1.1.3-.8.2-.6.9-.6.9h-.4c-.7 0-1.1.5-1.1.5-.7 1 0 1.8 0 1.8.3.4.8.5 1.1.5h.5c-.3.3-.6.4-.9.4h-.2c-1.3-.4-1.1-1.7-1.1-1.7 0-.9.7-1.5.7-1.5.7-.6.6-1.5.6-1.5 0-.6-.8-1.2-.8-1.2-.7-.6-1.5-1.3-1.6-1.3.1 0 0 0 0 0z"/></g><g><path fill="#B3B3B3" d="M41.8 45.7c-.1-.1-.1-.2-.2-.3.6-.3 1.2-.7 1.8-1v.3c-.5.3-1.1.6-1.6 1l.2.2c.2.4.1 1.2.2 1.8.1.3.3.5.4.8.5.8 1.2 1.4 1.4 2.6v.8c0 .3 0 1.9-.1 2.3-.1.3-.2.5-.5.6-.2 0-.4 0-.5-.2.1.1.2.1.3.1.3 0 .5-.3.5-.6.1-.4.1-2 .1-2.3V51c-.1-1.2-.9-1.8-1.4-2.6-.2-.3-.4-.5-.4-.8-.1-.7 0-1.5-.2-1.9zm6.4 3.4l1-1.9h.6l.1-.2H49l-.8 1.6v.5zm1 1.3c.1.5 0 2.1 0 2.6-.1 1.3-.2 1.5-.7 1.5-.1 0-.1 0-.2-.1.1.1.2.2.4.2.4 0 .6-.2.7-1.5 0-.5.1-2.1 0-2.6 0-.2-.1-.7-.3-.8 0 .2.1.5.1.7zm-11.9-4.7c.1.2.2.6.2 1 0 .7-.1 1.2-.5 1.2h-.2c.1.1.2.2.3.2.4 0 .5-.6.5-1.2s-.1-1.1-.3-1.2zm.8 2.8c.6 0 1 .2 1.3.4-.3-.3-.7-.6-1.3-.6v.2zm12 .5c-.3-.3-.6-.4-.8-.4l-.1.3c0-.1.5-.3.9.1zm-13.6 1.6c0-.5-.1-1.3.1-1.7 0 0-.1 0-.2-.1-.2.6-.1 1.6-.1 1.9.1 0 .2 0 .2-.1zm1.3 3.9c.4-.2.9-.8.9-1.8v-.8c0-.7 0-1.5-.3-2.1-.1-.2-.2-.3-.3-.4 0 .1.1.1.1.2.2.6.3 1.3.3 2.1v.8c0 1-.5 1.6-.9 1.8-.3.2-1 .2-1.6-.2.6.6 1.4.6 1.8.4zm21.6-7.1c.1.3.3.5.4.8.4.8 1.2 1.4 1.4 2.6v.8c0 .3 0 1.9-.1 2.3-.1.3-.2.5-.5.6-.1 0-.2 0-.3-.1.1.2.3.3.5.2.3 0 .5-.3.5-.6.1-.4.1-2 .1-2.3v-.8c-.2-1.2-.9-1.8-1.4-2.6-.2-.3-.4-.5-.4-.8-.1-.5 0-1.3-.2-1.8-.1-.1-.1-.2-.2-.3.5-.3 1.1-.6 1.7-.9v-.3c-.6.3-1.2.6-1.8 1 0 .1.1.1.2.3 0 .6-.1 1.4.1 1.9zm7.1 1.5c.2 0 .3.1.4.2-.1-.2-.3-.3-.6-.4-.2 0-.4 0-.6.1-.3.4-.3.7-.3.7s.4-.7 1.1-.6zm.8.9c.1.2.1.4.1.4s.3-1.4 1.5-1.4h.3c.2 0 .4.1.5.3-.2-.2-.4-.4-.7-.5h-.3c-.8.1-1.2.8-1.4 1.2zm-14-1.4c-.3-.4-.3-1-.3-1.6 0-.4.1-1.3.6-1.7.5-.4 1.1-.4 1.3-.3.3 0 .6.2.8.3-.2-.3-.5-.5-1-.5-.2 0-.8-.1-1.3.3-.6.5-.6 1.4-.6 1.7 0 .6 0 1.2.3 1.6.1 0 .2.1.2.2zm2 6.1c.4-.2.9-.8.9-1.8v-.8c0-.7 0-1.5-.3-2.1-.1-.2-.2-.3-.3-.4 0 .1.1.1.1.2.2.6.3 1.3.3 2.1v.8c0 1-.5 1.6-.9 1.8-.3.2-1 .2-1.6-.2.6.6 1.4.6 1.8.4zM54 50.6c0-.5-.1-1.3.2-1.7 0 0-.1 0-.2-.1-.2.6-.1 1.6-.1 1.9 0 0 .1 0 .1-.1zm.8-4.9c.1.2.2.6.2 1 0 .7-.1 1.2-.5 1.2h-.2c.1.1.2.2.3.2.4 0 .5-.6.5-1.2.1-.6 0-1.1-.3-1.2zm.9 2.8c.6 0 1 .2 1.3.4-.3-.3-.7-.6-1.3-.6v.2zm11 3.3c0-.4 0-1.1-.3-1.3.2.3.2.8.2 1.1v1.6l.2-.1c-.2-.4-.1-1-.1-1.3zm-7.6 2.9c-.3-.6-.4-1.3-.4-2.1 0-.4 0-.6-.1-.9 0-.1-.1-.1-.1-.2.1-.1.9-.5 1.3-.7v-.3s-1.4.7-1.5.8c0 0 0 .1.1.2.1.3.1.5.1.9 0 .8.1 1.5.4 2.1.1.2.2.4.4.5-.1-.1-.1-.2-.2-.3zm4.8-2.8c0-.6 0-1.8.1-2.5.3-2.1 2-2.6 3.1-3.5.2-.2.4-.6.2-1.1.4-.2.9-.3 1.4-.5v-.2c-.5.2-1.1.4-1.6.6.2.5.1.9-.2 1.1-1.2 1-2.8 1.4-3.1 3.5-.1.7-.1 1.8-.1 2.5 0 2.4.2 3.5.3 3.5h.1c-.1-.4-.2-1.5-.2-3.4zm-17.3.4v-1.1-1.9-2.4c0-.4 0-.8-.2-1.1l1.6-1.1v-.3l-1.8 1.2c.2.3.2.7.2 1.1v5.4c0 1.4.2 2.4.7 2.9-.4-.5-.5-1.4-.5-2.7zm5.1 0v-.7c0-.4 0-.7-.2-1l1.4-.7v-.3l-1.6.8c.2.2.2.6.2 1v.7c0 .6 0 1.9.9 2.7-.7-.8-.7-2-.7-2.5zm22.5 3h.2c.1-.8.2-2.4.2-2.4 0-.8.1-5.5-.1-6.3-.1-.2-.1-.4-.3-.5 0 .1.1.2.1.3.2.8.1 5.5.1 6.3.1-.1 0 1.9-.2 2.6zm-2.4-3.1V48c0-.5.1-1.4.3-1.9.3-.6.8-1.4 1.8-1.4.5 0 .9.2 1.2.5-.3-.4-.8-.7-1.4-.7-1 0-1.6.7-1.8 1.4-.2.6-.4 1.4-.4 1.9V52c0 1.7.2 2.9.3 3.3h.1c0-.5-.1-1.7-.1-3.1zm-2.7 2.1V52c0-.5.1-1.3-.3-1.5.2.3.1.9.1 1.3v2.3s-.1.8-.2 1.1h.2c.2-.3.2-.9.2-.9zm-42-5.8c-.2-.2-.4-.4-.8-.4-.5 0-1 .5-1.2.8v.5s.6-1.1 1.4-1.1c.3 0 .5 0 .6.2zm-1.4 6.1c.4 0 .6-.2.7-1.5 0-.5.1-2.1 0-2.6 0-.2-.1-.7-.3-.9.1.2.2.6.2.7.1.5 0 2.1 0 2.6-.1 1.3-.2 1.5-.7 1.5-.1 0-.1 0-.2-.1.1.2.2.3.3.3zm3.9-7.2c.1.3.3.5.4.8.5.8 1.2 1.4 1.4 2.6v.8c0 .3 0 1.9-.1 2.3-.1.3-.2.5-.5.6-.1 0-.2 0-.3-.1.1.2.3.3.5.2.3 0 .5-.3.5-.6.1-.4.1-2 .1-2.3v-.8c-.2-1.2-.9-1.8-1.4-2.6-.2-.3-.4-.5-.4-.8-.1-.5 0-1.3-.2-1.8-.1-.1-.1-.2-.2-.3.5-.3 1.1-.6 1.7-.9v-.3c-.6.3-1.2.6-1.8 1 0 .1.1.1.2.3.1.6 0 1.4.1 1.9zm12.1 7.3c-.3-.6-.4-1.3-.4-2.1 0-.4 0-.6-.1-.9 0-.1-.1-.1-.1-.2.1-.1.9-.5 1.3-.7v-.3s-1.4.7-1.5.8c0 0 0 .1.1.2.1.3.1.5.1.9 0 .8.1 1.5.4 2.1.1.2.2.4.4.5 0-.1-.1-.2-.2-.3zm-5.9-6.3c-.3-.4-.3-1-.3-1.6 0-.4.1-1.3.6-1.7.5-.4 1.1-.4 1.3-.3.3 0 .6.2.8.3-.2-.3-.5-.5-.9-.5-.2 0-.8-.1-1.3.3-.6.5-.6 1.4-.6 1.7 0 .6 0 1.2.3 1.6 0 0 0 .1.1.2zm-1.6 3.9v-.7c0-.4 0-.7-.2-1l1.4-.7v-.3l-1.6.8c.2.2.2.6.2 1v.7c0 .6 0 1.9.9 2.7-.7-.8-.7-2-.7-2.5zm-4.8 2.4c-.4-.7-.4-1.3-.4-2.1 0-.4 0-.6-.1-.9 0-.1-.1-.1-.1-.2.1-.1.9-.5 1.3-.7v-.3s-1.4.7-1.5.8c0 0 .1.1.1.2.1.3.1.5.1.9 0 .8.1 1.5.4 2.1.1.2.2.4.4.5-.1-.1-.2-.2-.2-.3zm-5.9-2.6v-.6c0-1 0-2.2.1-3.2 0-.7 0-1.3.1-1.8.2-1.3 1.2-1.7 1.6-1.7.5 0 .9.4 1.5.4.2 0 .4-.1.6-.2 0-.1.1-.2.1-.3-.2.1-.6.3-.9.3-.6 0-1-.4-1.5-.4-.4 0-1.4.4-1.6 1.7-.1.5-.1 1.2-.1 1.8 0 1.1-.1 2.2-.1 3.2v.6c0 1.4.1 2.4.6 3l.1.1c-.3-.6-.4-1.5-.5-2.9z"/></g><g><defs><path id="c" d="M49.7 38.8c-1.1 0-3.8.1-6 1.1l-3.9-6.8 1.4.4.1.2.5-.2s.7 3.1 2.4 3c0 0 .8-.1 1.2-1.2 0 0-1.2 1-2.1 0 0 0-1.3-1.6.6-2.4 0 0-.3-.2-.3-.6 0 0 0-.3.3-.6l.9-.8c.3.2 1.1.3 1.1.3.8.2.6.9.6.9.9-.2 1.5.5 1.5.5.7 1 0 1.8 0 1.8-.6.7-1.5.4-1.5.4.5.5 1.1.3 1.1.3 1.3-.4 1.1-1.7 1.1-1.7 0-.9-.7-1.5-.7-1.5-.7-.6-.6-1.5-.6-1.5 0-.6.8-1.2.8-1.2.6-.4 1.4-1.1 1.4-1.1h.2s.7.7 1.4 1.1c0 0 .8.5.8 1.2 0 0 .1.9-.6 1.5 0 0-.7.7-.7 1.5 0 0-.1 1.4 1.1 1.7 0 0 .6.2 1.1-.3 0 0-.9.3-1.5-.4 0 0-.8-.8 0-1.8 0 0 .6-.7 1.5-.5 0 0-.2-.8.6-.9 0 0 .8-.2 1.1-.3l.9.8c.3.2.3.6.3.6 0 .4-.3.6-.3.6 1.9.8.6 2.4.6 2.4-.9 1-2.1 0-2.1 0 .3 1.1 1.2 1.2 1.2 1.2 1.8.2 2.4-3 2.4-3l.5.2.1-.2 1.4-.4-3.9 6.9c-2.2-1-4.9-1.2-6-1.2z"/></defs><clipPath id="d"><use xlink:href="#c" overflow="visible"/></clipPath><g clip-path="url(#d)"><ellipse fill="#C9543E" cx="58.6" cy="34.7" rx=".2" ry=".2"/><path fill="#953D2A" d="M58.6 34.3c.2 0 .4.2.4.4s-.2.4-.4.4-.4-.2-.4-.4.2-.4.4-.4m0-.1c-.3 0-.5.2-.5.5s.2.5.5.5.5-.2.5-.5-.2-.5-.5-.5z"/></g><g clip-path="url(#d)"><path fill="#C9543E" d="M56.7 38.4c0 .1-.1.2-.2.2s-.2-.1-.2-.2.1-.2.2-.2.2.1.2.2z"/><path fill="#953D2A" d="M56.5 38c.2 0 .4.2.4.4s-.2.4-.4.4-.4-.2-.4-.4.2-.4.4-.4m0-.1c-.3 0-.5.2-.5.5s.2.5.5.5.5-.2.5-.5-.2-.5-.5-.5z"/></g><g clip-path="url(#d)"><path fill="#C9543E" d="M43.2 38.4c0 .1-.1.2-.2.2s-.2-.1-.2-.2.1-.2.2-.2.2.1.2.2z"/><path fill="#953D2A" d="M43 38c.2 0 .4.2.4.4s-.2.4-.4.4-.4-.2-.4-.4.2-.4.4-.4m0-.1c-.3 0-.5.2-.5.5s.2.5.5.5.5-.2.5-.5-.2-.5-.5-.5z"/></g><g clip-path="url(#d)"><ellipse fill="#C9543E" cx="40.8" cy="34.7" rx=".2" ry=".2"/><path fill="#953D2A" d="M40.8 34.3c.2 0 .4.2.4.4s-.2.4-.4.4-.4-.2-.4-.4.2-.4.4-.4m0-.1c-.3 0-.5.2-.5.5s.2.5.5.5.5-.2.5-.5-.2-.5-.5-.5z"/></g></g><g><path fill="#953D2A" d="M49.7 28.3c.1 0 .1 0 0 0 0 0 .8.7 1.4 1.1 0 0 .8.5.8 1.1 0 0 .1.9-.5 1.4 0 0-.7.7-.7 1.6 0 0-.1 1.4 1.2 1.8h.3c.2 0 .6-.1.9-.4l.3-.3-.4.3s-.2.1-.4.1c-.3 0-.7-.1-1-.4 0 0-.7-.8 0-1.7 0 0 .4-.5 1-.5h.5v-.2s-.1-.3.1-.5c.1-.1.2-.2.5-.3 0 0 .7-.1 1.1-.3l.8.8c.3.2.2.5.2.5 0 .4-.2.5-.3.5l-.2.1.2.1c.5.2.8.5.9.9.2.6-.4 1.3-.4 1.3-.2.3-.5.4-.9.4-.6 0-1.1-.4-1.1-.4l-.1-.3.1.3c.3 1.2 1.2 1.2 1.2 1.2h.2c1.5 0 2.2-2.4 2.4-2.9l.3.2h.1v-.1l.1-.2 1.2-.3-3.7 6.5c-2.2-1-4.9-1.1-6-1.1-1.1 0-3.7.1-5.9 1.1l-3.7-6.5 1.2.3.1.2v.1h.1l.3-.2c.1.6.8 2.9 2.4 2.9h.1s.9-.1 1.2-1.2l.1-.3-.2.2s-.5.4-1.1.4c-.3 0-.6-.1-.9-.4 0 0-.5-.7-.4-1.3.1-.4.4-.7.9-.9l.2-.1H44s-.2-.2-.3-.5c0 0 0-.3.3-.5l.8-.8c.4.2 1.1.3 1.1.3.2 0 .4.1.5.3.1.2.1.5.1.5v.2h.5c.6 0 1 .5 1 .5.7.9 0 1.7 0 1.7-.3.4-.7.4-1 .4-.2 0-.4-.1-.4-.1l-.4-.1.3.3c.3.3.7.4.9.4h.3c1.3-.4 1.2-1.8 1.2-1.8 0-.9-.7-1.6-.7-1.6-.6-.6-.5-1.4-.5-1.4 0-.6.8-1.1.8-1.1.5-.6 1.2-1.3 1.2-1.3m0-.1c-.1 0-.8.7-1.5 1.2 0 0-.8.5-.8 1.2 0 0-.1.9.6 1.5 0 0 .7.7.7 1.5 0 0 .1 1.4-1.1 1.7h-.2c-.2 0-.6-.1-.9-.4 0 0 .2.1.5.1s.7-.1 1.1-.5c0 0 .8-.8 0-1.8 0 0-.4-.5-1.1-.5h-.4s.2-.8-.6-.9c0 0-.8-.2-1.1-.3l-.9.8c-.3.2-.3.6-.3.6 0 .4.3.6.3.6-1.9.8-.6 2.4-.6 2.4.3.3.6.4.9.4.6 0 1.2-.5 1.2-.5-.3 1.1-1.2 1.2-1.2 1.2h-.1c-1.7 0-2.3-3-2.3-3l-.5.2-.1-.2-1.4-.4 3.9 6.8c2.2-1 4.9-1.1 6-1.1 1.1 0 3.8.1 6 1.1l3.9-6.8-1.4.4-.1.2-.5-.2s-.6 3-2.3 3h-.1s-.8-.1-1.2-1.2c0 0 .5.5 1.2.5.3 0 .6-.1.9-.4 0 0 1.3-1.6-.6-2.4 0 0 .3-.2.3-.6 0 0 0-.3-.3-.6l-1-.8c-.3.2-1.1.3-1.1.3-.8.2-.6.9-.6.9h-.4c-.7 0-1.1.5-1.1.5-.7 1 0 1.8 0 1.8.3.4.8.5 1.1.5h.5c-.3.3-.6.4-.9.4h-.2c-1.3-.4-1.1-1.7-1.1-1.7 0-.9.7-1.5.7-1.5.7-.6.6-1.5.6-1.5 0-.6-.8-1.2-.8-1.2-.7-.6-1.5-1.3-1.6-1.3.1 0 0 0 0 0z"/></g></g></g></svg>