<svg xmlns="http://www.w3.org/2000/svg" viewBox="0 0 148.9 407.8"><path opacity=".4" fill="#341A16" d="M110.3 132.2V91.8h-.1V62.7c0-23.2-15.3-42.9-36.4-49.4V5.2H42.9v8.1c-21 6.6-36.2 26.2-36.2 49.3 0 2.8 0 26.4-.1 29.1l-.1 40.4H0v15.7h6.9v7.1H4.4c-1.2 0-2.2 1-2.2 2.2 0 1.2 1 2.2 2.2 2.2h2.5V165.1H4.4c-1.2 0-2.2 1-2.2 2.2 0 1.2 1 2.2 2.2 2.2h2.5v6.6h-5v13.3h5c0 3.9-.1 14.2-.1 18.4h.1l-.1 200h103.7V193.2c0-1.4.5-2.7 1.3-3.7H115.6v-2.1c.3 0 .6-.1.8-.1h-.8v-.5h-.1v-10.5h-5v-6.6h1.7c1.2 0 2.2-1 2.2-2.2 0-1.2-1-2.2-2.2-2.2h-1.7V159.5h1.7c1.2 0 2.2-1 2.2-2.2 0-1.2-1-2.2-2.2-2.2h-1.7v-7h6.9V132.3h-7.1z"/><path fill="#423D2E" d="M38 52.1c0 2.8 0 26.4-.1 29.1h-.1l-.1 41.7h51.9V.3C61.2.3 38 23.5 38 52.1zM142 176.6H38.3l-.1 231.2H142"/><path fill="#2F2A1A" d="M46.9 407.8V188c0-6.2 5-11.2 11.2-11.2 6.2 0 11.2 5 11.2 11.2v219.8" opacity=".8"/><path fill="#9D9FA1" d="M117.5 407.8V183c0-4.8 5.5-8.7 12.2-8.7 6.8 0 12.2 3.9 12.2 8.7v224.8"/><path fill="#423D2E" d="M147.9 176.6H142v5.9c0-3.2 2.6-5.9 5.9-5.9z"/><path fill="#9B9FA3" d="M141.5 81.2V52.1C141.5 23.5 118.3.4 89.8.4V123h51.8V81.2h-.1z"/><path fill="#9B9FA3" d="M134.2 121.7h-16.3V53.4c0-18.5-11.5-43.8-27.7-50.2V.3h-.4v122.6l44.4-1.2z"/><circle fill="#2F291B" cx="88.6" cy="111.9" r="6.4"/><circle fill="#8D9188" cx="89.8" cy="110.7" r="5.2"/><path fill="#62635C" d="M87.9 113c-1.3-1.1-2-2.8-1.8-4.4-1.1 1.8-.7 4.1.9 5.5 1.6 1.4 4 1.3 5.5 0-1.6.4-3.3 0-4.6-1.1z"/><circle fill="#D8DCD7" cx="91.7" cy="108.4" r="1.7"/><path fill="#D8DCD7" d="M90.2 3.1V0c24.3 0 43.9 29.1 43.9 53.3v68.3h-16.3V53.3c.1-18.5-11.4-43.7-27.6-50.2z" opacity=".2"/><path fill="#D8DCD7" d="M90.2 3.1V0c24.3 0 43.9 29.1 43.9 53.3v68.3h-16.3V53.3c.1-18.5-11.4-43.7-27.6-50.2z" opacity=".2"/><circle fill="#2F291B" cx="50.3" cy="111.9" r="6.4" opacity=".5"/><circle fill="#838E7D" cx="51.5" cy="110.7" r="5.2"/><path fill="#727B70" d="M49.7 113c-1.3-1.1-1.9-2.8-1.8-4.4-1.1 1.8-.7 4.1.9 5.5 1.6 1.4 4 1.3 5.5 0-1.6.4-3.3 0-4.6-1.1z" opacity=".6"/><path opacity=".5" fill="#2F291B" d="M83.2 32.4C74.5 32.4 67 37 62.9 44c3-16.8 13.2-35.4 26.8-40.8V0C65.5 0 45.8 29.1 45.8 53.3v68.3H62V64.7c1.3 2.5 3.1 4.9 5.2 6.8v15.2c0 5.1 4 9.3 9.3 10.3v.2l1.9 17.4c0 .7.7 1.3 1.5 1.3h9.3c.8 0 1.5-.6 1.5-1.3l1.9-17.4V97c5.1-.9 3.5-64.6-9.4-64.6z"/><circle fill="#D8DCD7" cx="53.5" cy="108.4" r="1.7"/><path fill="#F3BA50" d="M95.1 111.9c0 .7-.6 1.3-1.3 1.3h-8.3c-.7 0-1.3-.6-1.3-1.3l-1.7-19.7c0-.7.6-1.3 1.3-1.3h11.6c.7 0 1.3.6 1.3 1.3l-1.6 19.7z"/><path fill="#F3BA50" d="M102.4 84c0 5.8-4.7 10.5-10.5 10.5h-4.3c-5.8 0-10.5-4.7-10.5-10.5V10.6C77.1 4.8 81.8.1 87.6.1h4.3c5.8 0 10.5 4.7 10.5 10.5V84z"/><path fill="#F3DD90" d="M96.9 92.2c-1.2 0-2.2-1-2.2-2.2V4.3c0-1.2 1-2.2 2.2-2.2 1.2 0 2.2 1 2.2 2.2V90c0 1.2-1 2.2-2.2 2.2z"/><path fill="#AA7C2C" d="M83.4 92.2c-1.2 0-2.2-1-2.2-2.2V4.3c0-1.2 1-2.2 2.2-2.2 1.2 0 2.2 1 2.2 2.2V90c0 1.2-1 2.2-2.2 2.2z"/><path fill="#C9543E" d="M109.5 46.9c0 11.4-9.3 20.7-20.7 20.7-11.4 0-20.7-9.3-20.7-20.7 0-11.4 9.3-20.7 20.7-20.7 11.4 0 20.7 9.2 20.7 20.7z"/><path fill="#BC873F" d="M77.5 58.1c-6.2-6.2-6.2-16.3 0-22.5l-5.3-5.3c-9.2 9.2-9.2 24 0 33.1 9.1 9.2 24 9.2 33.1 0l-5.3-5.3c-6.2 6.2-16.3 6.2-22.5 0z"/><path fill="#715421" d="M77.1 67.2v3.9c7.9 4.5 17.8 4.1 25.3-1.2V66c-7.5 5.3-17.4 5.7-25.3 1.2z" opacity=".8"/><path fill="#F3DD90" d="M72.2 30.3l5.3 5.3c6.2-6.2 16.3-6.2 22.5 0 6.2 6.2 6.2 16.3 0 22.5l5.3 5.3c9.1-9.1 9.1-24 0-33.1-9.1-9.1-24-9.1-33.1 0z"/><path fill="#715421" d="M99.4 13.8H77.1v3.3h25.3v-3.3" opacity=".8"/><path fill="#2F291B" d="M88.8 32.7c7.9 0 14.3 6.4 14.3 14.3s-6.4 14.3-14.3 14.3S74.5 54.9 74.5 47s6.4-14.3 14.3-14.3m0-1.7c-8.8 0-16 7.2-16 16s7.1 15.9 15.9 15.9 15.9-7.1 15.9-15.9c.1-8.8-7-16-15.8-16z" opacity=".3"/><path fill="#F3DD90" d="M92.3 94.5l-.2 2.3-1 14.8c0 .6.4 1.2 1 1.2h.1c.6 0 1.1-.5 1.1-1l1-14.9.2-2.6c-.7.1-1.5.2-2.2.2z"/><path fill="#AA7C2C" d="M86.6 94.5l.2 2.3 1 14.8c0 .6-.4 1.2-1 1.2h-.1c-.6 0-1.1-.5-1.1-1l-1-14.9-.2-2.6c.7.1 1.5.2 2.2.2z"/><path fill="#715421" d="M87.6 94.5c-1.8 0-3.5-.4-4.9-1.2l.3 3.3c.6.1 1.2.2 1.8.2h9.8c.6 0 1.2-.1 1.8-.2l.3-3.3c-1.5.8-3.2 1.2-4.9 1.2h-4.2z" opacity=".8"/><path fill="#D8DCD7" d="M126.6 27.2c0 4.8-3.9 8.8-8.8 8.8-4.8 0-8.8-3.9-8.8-8.8 0-4.8 3.9-8.8 8.8-8.8 4.9.1 8.8 4 8.8 8.8z"/><circle fill="#515557" cx="126.3" cy="111.9" r="6.4"/><circle fill="#9B9FA3" cx="127.5" cy="110.7" r="5.2"/><path fill="#8D9188" d="M125.6 113c-1.3-1.1-2-2.8-1.8-4.4-1.1 1.8-.7 4.1.9 5.5 1.6 1.4 4 1.3 5.5 0-1.6.4-3.3 0-4.6-1.1z" opacity=".7"/><circle fill="#D8DCD7" cx="129.4" cy="108.4" r="1.7"/><path fill="#D4D6CF" d="M117.5 407.8V184.1c0-4.6 3.8-8.4 8.4-8.4 4.6 0 8.4 3.8 8.4 8.4v223.7" opacity=".5"/><path fill="#8D9188" d="M91.7 407.8V188c0-7.1 5.8-12.9 12.9-12.9 7.1 0 12.9 5.8 12.9 12.9v219.8"/><path fill="#2F291B" d="M142 177.3H38.3s-.1 14.7-.1 19.9C94.6 183.6 142 182.5 142 182.5v-5.2z"/><path fill="#5F6160" d="M142 134.4H38.3l-.1 32.6H142"/><path fill="#423D2E" d="M89.8 134.4H38.2V167h51.6"/><path fill="#2F291B" d="M61.7 134.4H45.8V167h15.9" opacity=".5"/><path fill="#D8DCD7" d="M134.2 134.4h-16.4V167h16.4" opacity=".2"/><path fill="#2F291B" d="M142 134.4H38.3l-.1 7.1H142M142 145.8H38.3l-.1 6.1H142M142 126.4H38.3l-.1 6.1H142M142 156.1H38.3l-.1 6H142"/><path fill="#8F9580" d="M143.7 148.8h-108c-1.2 0-2.2-1-2.2-2.2 0-1.2 1-2.2 2.2-2.2h108c1.2 0 2.2 1 2.2 2.2 0 1.2-1 2.2-2.2 2.2z"/><path fill="#D4D6CF" d="M142.3 147.1H98.2c-.3 0-.6-.2-.6-.6 0-.3.2-.6.6-.6h44.1c.3 0 .6.2.6.6 0 .3-.3.6-.6.6z"/><path fill="#8F9580" d="M143.7 159h-108c-1.2 0-2.2-1-2.2-2.2 0-1.2 1-2.2 2.2-2.2h108c1.2 0 2.2 1 2.2 2.2 0 1.2-1 2.2-2.2 2.2z"/><path fill="#D4D6CF" d="M142.3 157.3H98.2c-.3 0-.6-.2-.6-.6 0-.3.2-.6.6-.6h44.1c.3 0 .6.3.6.6 0 .4-.3.6-.6.6z"/><path fill="#2F291B" d="M83 134.3H38.9c-1.9 0-3.4-1.5-3.4-3.4s1.5-3.4 3.4-3.4H83c1.9 0 3.4 1.5 3.4 3.4-.1 1.9-1.6 3.4-3.4 3.4z" opacity=".8"/><path fill="#A7ABA5" d="M31.3 121.6h117.6v15.7H31.3zM33.3 165.6H147v13.2H33.3z"/><path fill="#A9AA8C" d="M31.3 121.6h60v15.7h-60zM33.3 165.6h57.1v13.2H33.3z"/><path fill="#423D2E" d="M31.3 134.5h117.6v2.8H31.3zM33.3 176.1h113.8v2.8H33.3z"/><path opacity=".6" fill="#D8DCD7" d="M121.9 121.7h18.5v12.9h-18.5z"/><path opacity=".7" fill="#2F291B" d="M34.7 123.1h21.8v11.5H34.7zM36.7 167.2h18.6v8.9H36.7z"/><path opacity=".6" fill="#D8DCD7" d="M123.2 167.2H139v8.9h-15.8z"/><path fill="#8F9580" d="M79.4 123.1h21.5v11.5H79.4zM80.9 167.2h18.4v8.9H80.9zM31.3 121.6h48v1.6h-48z"/><path fill="#D8DCD7" d="M79.4 121.6h69.5v1.6H79.4z"/><path fill="#8F9580" d="M33.3 165.6H81v1.6H33.3z"/><path fill="#D8DCD7" d="M80.9 165.6h66v1.6h-66z"/><g><path fill="#F3DD90" d="M90.5 40.7c-.4.4-.8.9-1 1.4-.3-.1-.6-.1-1 0-.3-.5-.6-1-1-1.4.5-1 1.4-1.5 1.5-1.6.2.1 1 .6 1.5 1.6zM87.5 42.9c-.1.1-.3.3-.4.5-.1.1-.2.3-.3.4-.1.1-.2.3-.2.4v.1s0 .1-.1.1c-.8-.7-1.7-1-2.1-1.1.3-1.4 1.2-2.4 1.4-2.4 0 0 .1 0 .3.2l.3.3.4.4c.3.4.6.8.7 1.1zM93.6 43.4c-.7.2-1.5.6-2.1 1.1 0 0 0-.1-.1-.1 0 0 0-.1-.1-.1-.1-.1-.1-.3-.2-.4l-.1-.1c-.1-.1-.1-.2-.2-.3v-.1s0-.1-.1-.1c-.1-.2-.2-.3-.4-.4.2-.3.4-.7.7-1 .1-.2.3-.3.4-.4l.3-.3c.2-.1.3-.2.3-.2.4 0 1.3 1 1.6 2.4zM90.6 45.5c-.1.1-.1.2-.2.3-.1.2-.2.3-.2.4v.1c-.1-.1-.1-.1-.2-.1 0 0-.1 0-.1-.1-.1 0-.1-.1-.2-.1-.1-.1-.2-.1-.3-.2H88.7c-.1 0-.3.1-.4.2l-.1.1h-.1c-.1 0-.1.1-.2.2v-.1c-.1-.1-.1-.3-.2-.4-.1-.1-.1-.2-.2-.3v-.1-.1c0-.1.1-.3.1-.4v-.1c.1-.1.1-.3.2-.4.1-.1.2-.2.3-.4.1-.2.2-.3.3-.4l.3-.3c.1 0 .1 0 .1-.1l.1.1.3.3c.1.1.2.3.4.4.1.1.2.3.3.4 0 0 0 .1.1.1.1.1.1.2.2.3 0 0 0 .1.1.1.1.1.1.2.1.3.1.2.1.2.2.3-.1 0 0 0 0 0zM86.9 47.5s0 .1-.1.1v.1c-.1.2-.2.3-.3.5-.4-.3-.9-.6-1.4-.8-.3-.1-.6-.2-.8-.3-.4-.2-.8-.2-1.1-.3-.1-.8 0-1.6.2-2 .1-.2.1-.3.1-.3h.1c.1 0 .2 0 .4.1.6.2 1.5.6 2.1 1.3.1.2.3.3.4.5v.1c.2.3.3.6.4 1zM94.8 46.8c-.4.1-.8.2-1.2.4-.3.1-.7.3-1.1.5-.3.2-.6.4-.9.5 0 0 0-.1-.1-.1-.1-.2-.2-.3-.3-.5 0-.1-.1-.1-.1-.2v-.1c.1-.4.2-.7.3-1v-.1c.1-.2.2-.3.4-.5.8-.8 1.8-1.2 2.1-1.3.2-.1.3-.1.4-.1h.1s.1.1.1.3c.3.6.4 1.4.3 2.2z"/><g><path fill="#E6AF3D" d="M93.7 51.6c-1.2 1.3-2.8 1.8-3.4 1.8h-.1v2.1h-2.4v-2.1h-.1c-.6-.1-2.2-.5-3.4-1.8-1.2-1.4-1.9-3.1-1.8-3.6h.3c.1 0 .3 0 .5.1 1.1.3 2.6 1 3.4 2.1 0 .1.1.1.1.2l.3.5v-.6c0-.3.1-.6.2-1 .1-.1.1-.3.2-.5.1-.1.1-.2.2-.3v-.1-.1c.1-.2.2-.3.4-.5.4-.5.8-.8.8-.8.1 0 .4.3.9.8.1.1.2.3.3.5 0 .1.1.1.1.2.1.1.1.2.2.3.1.1.1.3.2.4.1.4.2.7.2 1v.5l.3-.4.1-.1c.8-.9 2.3-1.7 3.4-2.1h.1c.3-.1.4-.1.6-.1h.2c.2.5-.6 2.2-1.8 3.6z"/></g></g></svg>