<svg xmlns="http://www.w3.org/2000/svg" viewBox="0 0 9.8 1072.6"><path opacity=".7" fill="#FFCE44" d="M9.7 1072.6c0-5.9-.6-10.8-1.4-15.4v-1.5c.9-4.7 1.5-9.7 1.5-15.6s-.7-11-1.5-15.7v-21.8c.8-4.7 1.5-9.8 1.5-15.7 0-6-.7-11-1.5-15.7v-1.5c.8-4.6 1.4-9.5 1.4-15.4s-.6-10.6-1.4-14.9v-21.3c.8-4.7 1.5-9.9 1.5-16.7 0-6.7-.7-12-1.5-16.8v-1.1c.9-4.5 1.5-9.2 1.5-15 0-5.8-.7-10.8-1.5-15.4v-21.9c.8-4.7 1.4-9.7 1.4-15.7 0-6.1-.6-11.2-1.4-15.9v-1.9c.8-4.5 1.4-9.4 1.4-14.9s-.6-10.3-1.4-14.8v-21.9c.9-4.8 1.5-9.9 1.5-16 0-6-.7-11-1.5-15.7v-1.6c.8-4.6 1.4-9.7 1.4-15.8 0-6.2-.6-11.3-1.4-16.1v-22.1c.8-4.5 1.4-9.3 1.4-14.8s-.6-10.5-1.4-15.3v-2.1c.8-4.8 1.5-9.8 1.5-15.2 0-5.4-.7-10.5-1.5-15.5v-22.8c.8-4.8 1.4-9.8 1.4-15 0-8-.7-19.5-1.4-28.6.8-4.6 1.5-9.6 1.5-15.6 0-5.9-.7-11-1.5-15.7v-21.8c.8-4.7 1.5-9.8 1.5-15.7 0-6-.7-11-1.5-15.7v-1.5c.8-4.6 1.4-9.5 1.4-15.4s-.6-10.6-1.4-14.9v-21.3c.8-4.7 1.5-9.9 1.5-16.7 0-6.7-.7-12-1.5-16.8v-1.1c.9-4.5 1.5-9.2 1.5-15 0-5.8-.7-10.7-1.5-15.4V305c.8-4.7 1.4-9.7 1.4-15.7 0-6.1-.6-11.2-1.4-15.9v-1.9c.8-4.5 1.4-9.4 1.4-14.9s-.6-10.3-1.4-14.8v-21.9c.9-4.8 1.5-9.9 1.5-16 0-6-.7-11-1.5-15.7v-1.6c.8-4.6 1.4-9.7 1.4-15.8 0-6.2-.6-11.3-1.4-16.1v-22.1c.8-4.5 1.4-9.3 1.4-14.8s-.6-10.5-1.4-15.3v-2.1c.8-4.8 1.5-9.8 1.5-15.2 0-5.4-.7-10.5-1.5-15.5V47.3c.8-4.9 1.4-9.8 1.4-15 0-8-.7-19.6-1.4-28.8V0H1.5v13.6C.8 22.7.1 34.4.1 42.3c0 5.2.6 10.2 1.4 15v2.5C.7 64.9 0 70.1 0 75.4c0 5.3.7 10.3 1.5 15.2V113c-.8 4.8-1.4 9.8-1.4 15.2 0 5.5.6 10.3 1.4 14.8v1.9C.7 149.6.1 154.8.1 161c0 6.1.6 11.2 1.4 15.8v21.8c-.8 4.7-1.5 9.7-1.5 15.7s.7 11.2 1.5 16v1.7c-.8 4.5-1.4 9.3-1.4 14.8s.6 10.3 1.4 14.9v22.2c-.8 4.7-1.4 9.9-1.4 15.9s.6 11.1 1.4 15.7v1.6c-.8 4.7-1.5 9.6-1.5 15.4 0 5.8.7 10.5 1.5 15v21.4c-.8 4.6-1.5 9.9-1.5 16.6 0 6.8.6 12 1.5 16.7v1.1c-.8 4.3-1.5 9.1-1.5 14.9 0 5.9.6 10.8 1.5 15.4v21.7C.7 460 0 465 0 471c0 5.9.7 11 1.5 15.7v1.6C.7 493 0 498.1 0 504c0 6 .7 11 1.5 15.6v20C.8 548.7.1 560.4.1 568.3c0 5.2.6 10.2 1.4 15v2.5c-.9 5-1.5 10.1-1.5 15.5 0 5.3.7 10.3 1.5 15.2V639c-.8 4.8-1.4 9.8-1.4 15.2 0 5.5.6 10.3 1.4 14.8v1.9C.7 675.6.1 680.8.1 687c0 6.1.6 11.2 1.4 15.8v21.8c-.8 4.7-1.5 9.7-1.5 15.7s.7 11.2 1.5 16v1.7c-.8 4.5-1.4 9.3-1.4 14.8s.6 10.3 1.4 14.9v22.2c-.8 4.7-1.4 9.9-1.4 15.9s.6 11 1.4 15.7v1.6c-.8 4.7-1.5 9.6-1.5 15.4 0 5.8.7 10.5 1.5 15v21.4c-.8 4.6-1.5 9.9-1.5 16.6 0 6.8.6 12 1.5 16.7v1.1c-.8 4.3-1.5 9.1-1.5 14.9 0 5.9.6 10.8 1.5 15.4v21.7C.7 986 0 991 0 997c0 5.9.7 11 1.5 15.7v1.6C.7 1019 0 1024 0 1030s.7 11 1.5 15.6v21.7c-.3 1.7-.6 3.4-.8 5.3h9z"/><path opacity=".8" fill="#FFE3B4" d="M9.3 869.9c0 1-.8 1.9-1.9 1.9-1 0-1.9-.8-1.9-1.9 0-1 .8-1.9 1.9-1.9 1.1 0 1.9.9 1.9 1.9zM5.5 751.5c0 1-.8 1.9-1.9 1.9-1 0-1.9-.8-1.9-1.9 0-1 .8-1.9 1.9-1.9 1 0 1.9.9 1.9 1.9zm3.6-53.8c0 1-.9 1.9-1.9 1.9-1 0-1.9-.8-1.9-1.9 0-1 .8-1.9 1.9-1.9 1.1 0 1.9.8 1.9 1.9zM5.5 591.3c0 1-.8 1.9-1.9 1.9-1 0-1.9-.8-1.9-1.9 0-1 .8-1.9 1.9-1.9 1 0 1.9.8 1.9 1.9zm2.2 335.5c0 1-.8 1.9-1.9 1.9-1 0-1.9-.8-1.9-1.9 0-1 .8-1.9 1.9-1.9 1 .1 1.9.9 1.9 1.9zm-2.6 98.9c0 1-.8 1.9-1.9 1.9-1 0-1.9-.8-1.9-1.9 0-1 .8-1.9 1.9-1.9 1.1 0 1.9.9 1.9 1.9zm4.2-681.8c0 1-.8 1.9-1.9 1.9-1 0-1.9-.8-1.9-1.9 0-1 .8-1.9 1.9-1.9 1.1 0 1.9.9 1.9 1.9zM5.5 225.5c0 1-.8 1.9-1.9 1.9-1 0-1.9-.8-1.9-1.9 0-1 .8-1.9 1.9-1.9 1 0 1.9.9 1.9 1.9zm3.6-53.8c0 1-.9 1.9-1.9 1.9-1 0-1.9-.8-1.9-1.9 0-1 .8-1.9 1.9-1.9 1.1 0 1.9.8 1.9 1.9zM5.5 65.3c0 1-.8 1.9-1.9 1.9-1 0-1.9-.8-1.9-1.9 0-1 .8-1.9 1.9-1.9 1 0 1.9.9 1.9 1.9zm2.2 335.6c0 1-.8 1.9-1.9 1.9-1 0-1.9-.8-1.9-1.9 0-1 .8-1.9 1.9-1.9 1 0 1.9.8 1.9 1.9z"/><circle opacity=".8" fill="#FFE3B4" cx="3.3" cy="499.7" r="1.9"/><path fill="none" d="M61.7 141.9l-87.8-84.2L-51.9-.2H82.3"/></svg>