<svg xmlns="http://www.w3.org/2000/svg" viewBox="0 0 138.4 225"><g opacity=".4" fill="#341A16"><path opacity=".4" d="M132.9 64.4c-3.6-3.7-8.5-5.9-14-5.9H99v12.9h19.9c1.9 0 3.6.8 4.8 2.1 1.1 1.2 1.8 2.7 1.8 4.5v60.7c0 7.6-.6 14.2-5.1 18.7-3.8 3.8-10.3 6-21.5 6v12.9c15.4 0 24.9-3.9 30.7-9.7 7.4-7.5 8.8-18.1 8.8-28V77.9c0-5.2-2.1-10-5.5-13.5z"/><path opacity=".4" d="M99.6 22.8v191.7c0 9.1-5.2 10.5-15.2 10.5H15.2C5 225 0 223 0 214.5V22.7c0-6.2 99.6-6 99.6.1z"/></g><path opacity=".2" fill="none" stroke="#F4EFE5" stroke-width="19" stroke-miterlimit="10" d="M41.1 0L41 198.9"/></svg>