<svg xmlns="http://www.w3.org/2000/svg" xmlns:xlink="http://www.w3.org/1999/xlink" viewBox="0 0 63.6 21.6"><path fill="#ED2024" d="M4.2 2.5H5v4.4h-.8z"/><path fill="#ED3C55" d="M5.4 7.2H3.8V2.1h1.6v5.1z"/><path fill="#ED2024" d="M2.4 4.2h4.4V5H2.4z"/><path fill="#ED3C55" d="M7.1 5.4H2V3.8h5.1v1.6z"/><g><path fill="#ED2024" d="M16.6 2.5h.8v4.4h-.8z"/><path fill="#ED3C55" d="M17.8 7.2h-1.6V2.1h1.6v5.1z"/><g><path fill="#ED2024" d="M14.8 4.2h4.4V5h-4.4z"/><path fill="#ED3C55" d="M19.6 5.4h-5.1V3.8h5.1v1.6z"/></g></g><g><path fill="#ED2024" d="M4.2 14.8H5v4.4h-.8z"/><path fill="#ED3C55" d="M5.4 19.5H3.8v-5.1h1.6v5.1z"/><g><path fill="#ED2024" d="M2.4 16.5h4.4v.8H2.4z"/><path fill="#ED3C55" d="M7.1 17.7H2v-1.6h5.1v1.6z"/></g></g><g><path fill="#ED2024" d="M16.6 14.8h.8v4.4h-.8z"/><path fill="#ED3C55" d="M17.8 19.5h-1.6v-5.1h1.6v5.1z"/><g><path fill="#ED2024" d="M14.8 16.5h4.4v.8h-4.4z"/><path fill="#ED3C55" d="M19.6 17.7h-5.1v-1.6h5.1v1.6z"/></g></g><g><path fill="#ED3C55" d="M9.3 21.6v-9.3H0v-3h9.3V0h3v9.3h9.3v3h-9.3v9.3"/><path fill="#ED3C55" d="M12.1 0v9.5h9.5v2.6h-9.5v9.5H9.5v-9.5H0V9.5h9.5V0h2.6zm.3 0H9.2v9.2H0V12.4h9.2v9.2H12.4v-9.2h9.2V9.2h-9.2V0z"/></g><g><defs><path id="a" d="M63.6 20.2c0 .3-.2.5-.5.5H44.4c-.3 0-.5-.2-.5-.5V1.4c0-.3.2-.5.5-.5h18.8c.3 0 .5.2.5.5v18.8z"/></defs><clipPath id="b"><use xlink:href="#a" overflow="visible"/></clipPath><g clip-path="url(#b)" fill="#F4EFE5"><path d="M56.2 10.8l7.4-7.5V1.4c0-.3 0-.5-.3-.5h-1.9l-7.5 7.5 2.3 2.4zM51.5 10.8l-7.6 7.5-.5 2.5c0 .3.4.5.7.5l2.4-.6 7.4-7.5-2.4-2.4zM64.1 20.5l-.5-2.2-7.4-7.5-2.3 2.4 7.5 7.5 2.3.4c.4-.1.4-.3.4-.6zM53.9 8.4L46.4.9 44 .5c-.3 0-.7.2-.7.5l.5 2.2 7.6 7.5 2.5-2.3z"/></g><defs><path id="c" d="M63.6 20.2c0 .3-.2.5-.5.5H44.4c-.3 0-.5-.2-.5-.5V1.4c0-.3.2-.5.5-.5h18.8c.3 0 .5.2.5.5v18.8z"/></defs><clipPath id="d"><use xlink:href="#c" overflow="visible"/></clipPath><path clip-path="url(#d)" fill="#ED3C55" d="M53.8 10.6L43.8.7c-.1.1.1.6.1.7v.9l9.1 9 .8-.7z"/><path clip-path="url(#d)" fill="#ED3C55" d="M63.6 19.2l-9.5-9.6-.7.7 10.1 10.1c.1-.1.1-.2.1-.4v-.8z"/><g clip-path="url(#d)" fill="#ED3C55"><path d="M53.6 11L44 20.5c.1.1.2.1.4.1h.9l9-9-.7-.6zM53.3 11.2L63.6.9c-.1-.1-.4 0-.5 0h-.9l-9.6 9.6.7.7z"/></g><path fill="#F4EFE5" d="M55.9 8.6V.9h-4.3v7.7h-7.7V13h7.7v7.7h4.3V13h7.7V8.6"/><g><path fill="#ED3C55" d="M63.6 9.6V12H55v8.7h-2.5V12h-8.6V9.6h8.6V.9H55v8.7"/></g></g></svg>