<svg xmlns="http://www.w3.org/2000/svg" width="157.051" height="186.815" viewBox="0 0 157.051 186.815"><path fill="#C9543E" d="M155.217 133.72c3.775 6.538 1.537 14.894-5 18.667l-56.46 32.596c-6.534 3.773-14.894 1.535-18.667-5L1.833 53.098C-1.94 46.56.3 38.203 6.837 34.43l56.46-32.598C69.83-1.938 78.186.3 81.96 6.834l73.257 126.885z"/><path fill="#F3BA50" d="M11.433 57.016l69.125-39.91 65.06 112.685-69.124 39.912z"/><path fill="#F36D3F" d="M116.727 164.45c3.723 1 7.555-1.214 8.553-4.935l-13.494-3.62c-1 3.728 1.212 7.558 4.94 8.556z"/><path fill="#953D2A" d="M120.338 150.957c-3.725-.996-7.555 1.215-8.553 4.938l13.494 3.62c.997-3.728-1.217-7.556-4.942-8.558z"/><path fill="#F3BA50" d="M40.493 23.62c.565.974.225 2.228-.745 2.786-.98.566-2.225.23-2.788-.746-.563-.977-.23-2.22.75-2.787.97-.56 2.22-.23 2.783.746z"/><path fill="#953D2A" d="M35.737 33.34l12.16-7.02c.198-.114.446-.048.56.145.047.084.047.18.034.275l1.568.418c.127-.49.072-1.027-.203-1.504-.56-.97-1.797-1.3-2.768-.738l-12.16 7.02c-.482.28-.808.73-.944 1.23l1.564.42c.025-.104.093-.19.19-.246z"/><path fill="#F36D3F" d="M48.49 26.74c-.023.107-.08.215-.19.275l-11.808 6.818.45.123-.45-.123-.352.203c-.195.115-.438.05-.552-.146-.056-.096-.067-.21-.04-.305l-1.565-.42c-.132.498-.078 1.047.202 1.535.562.97 1.797 1.297 2.766.74l12.16-7.02c.5-.288.82-.75.948-1.263l-1.567-.417z"/><path fill="#F3BA50" d="M11.43 57.018l69.125-39.91 65.06 112.685-69.123 39.91z"/><path opacity=".5" fill="none" stroke="#FFE3B4" stroke-miterlimit="10" d="M107.145 75.96c.115 1.015-.615 1.935-1.637 2.052-1.016.115-1.936-.617-2.05-1.64-.118-1.017.616-1.933 1.632-2.05 1.02-.115 1.94.617 2.055 1.637zM39.603 83.834c.117 1.02-.617 1.938-1.636 2.055-1.018.11-1.94-.622-2.053-1.638-.118-1.018.614-1.938 1.63-2.05 1.022-.118 1.944.616 2.06 1.632zM55.6 79.754c.114 1.018-.62 1.938-1.64 2.053-1.017.113-1.936-.617-2.053-1.637-.113-1.016.62-1.936 1.635-2.05 1.02-.118 1.942.614 2.057 1.634zM67.548 83.064c.116 1.02-.615 1.938-1.635 2.053-1.013.115-1.936-.615-2.046-1.633-.118-1.02.612-1.938 1.63-2.053 1.02-.116 1.938.615 2.05 1.634zM92.04 142.82c.116 1.02-.614 1.936-1.632 2.05-1.02.116-1.94-.614-2.055-1.636-.115-1.018.617-1.934 1.633-2.05 1.018-.116 1.94.617 2.055 1.636zM86.01 155.354c.117 1.016-.615 1.936-1.64 2.05-1.013.118-1.937-.614-2.048-1.632-.117-1.018.613-1.94 1.633-2.055 1.018-.115 1.94.617 2.055 1.637zM80.584 135.332c.115 1.016-.617 1.94-1.64 2.055-1.017.113-1.935-.62-2.05-1.64-.115-1.013.615-1.935 1.635-2.05 1.02-.117 1.937.616 2.054 1.635z"/><circle opacity=".5" fill="none" stroke="#FFE3B4" stroke-miterlimit="10" cx="116.559" cy="111.646" r="1.855"/><path opacity=".5" fill="none" stroke="#FFE3B4" stroke-miterlimit="10" d="M90.215 113.29c.115 1.024-.62 1.94-1.637 2.056s-1.938-.617-2.05-1.635c-.118-1.02.612-1.937 1.628-2.054 1.022-.113 1.944.617 2.06 1.635zM70.087 104.684c.117 1.018-.616 1.94-1.632 2.05-1.024.118-1.938-.612-2.056-1.636-.116-1.016.614-1.936 1.636-2.05 1.014-.116 1.936.618 2.05 1.636zM93.898 95.055c.115 1.016-.613 1.936-1.637 2.053-1.013.115-1.935-.615-2.052-1.635-.115-1.02.617-1.936 1.64-2.053 1.017-.115 1.935.617 2.05 1.635zM82.982 85.348c.117 1.016-.615 1.938-1.635 2.053-1.02.114-1.938-.616-2.05-1.636-.118-1.018.615-1.938 1.632-2.053 1.02-.114 1.937.618 2.052 1.638zM90.943 81.443c.11 1.02-.617 1.938-1.633 2.053-1.02.115-1.94-.615-2.057-1.635-.11-1.017.617-1.933 1.635-2.05 1.022-.115 1.938.614 2.055 1.633zM106.912 84.834c.12 1.02-.613 1.936-1.633 2.053-1.02.113-1.94-.615-2.054-1.637-.117-1.018.615-1.936 1.633-2.05 1.02-.118 1.94.614 2.052 1.634zM76.734 74.758c.113 1.018-.617 1.936-1.637 2.05-1.018.116-1.936-.616-2.05-1.632-.12-1.02.615-1.94 1.632-2.055 1.02-.116 1.94.618 2.054 1.638zM44.72 73.066c.113 1.018-.617 1.938-1.636 2.05-1.018.118-1.937-.614-2.052-1.632-.115-1.02.614-1.94 1.63-2.053 1.023-.114 1.943.617 2.057 1.636z"/><path fill="#F4DCC6" d="M111.412 70.547H19.244l-7.81-13.53L80.56 17.11"/><path fill="#F4EFE5" d="M111.412 70.547H19.244l-7.81-13.53H103.6"/><path opacity=".2" fill="#F4EFE5" d="M155.217 133.72L81.96 6.833C78.188.3 69.833-1.94 63.297 1.832L6.836 34.43c-1.1.635-2.022 1.428-2.866 2.283l148.756 113.775c4.516-4.246 5.727-11.166 2.49-16.77z"/></svg>