<svg xmlns="http://www.w3.org/2000/svg" width="71.111" height="133.611" viewBox="0 0 71.111 133.611"><path fill="#C9543E" d="M71.11 123.107c0 5.803-4.7 10.504-10.5 10.504H10.503c-5.8 0-10.504-4.7-10.504-10.503V10.502C0 4.702 4.703 0 10.504 0H60.61c5.8 0 10.5 4.7 10.5 10.502v112.605z"/><path fill="#F3BA50" d="M4.883 16.8H66.23v100.01H4.884z"/><path fill="#F36D3F" d="M33.68 128.77c2.096 2.095 5.496 2.095 7.592 0l-7.592-7.593c-2.098 2.098-2.098 5.497 0 7.594z"/><path fill="#953D2A" d="M41.27 121.178c-2.096-2.094-5.494-2.094-7.59 0l7.592 7.594c2.097-2.098 2.093-5.497-.002-7.594z"/><path fill="#F3BA50" d="M37.06 5.738c0 .865-.706 1.568-1.567 1.568-.87 0-1.568-.703-1.568-1.568 0-.867.697-1.566 1.568-1.566.86 0 1.568.7 1.568 1.566z"/><path fill="#953D2A" d="M30.158 10.38H40.95c.175 0 .315.14.315.312 0 .074-.037.14-.082.197l.883.88c.273-.277.443-.656.443-1.078 0-.86-.698-1.557-1.56-1.557H30.158c-.428 0-.818.176-1.102.455l.88.88c.058-.058.136-.09.222-.09z"/><path fill="#F36D3F" d="M41.184 10.89c-.06.06-.137.11-.233.11H30.47l.255.254L30.47 11h-.312c-.174 0-.31-.133-.31-.31 0-.087.034-.165.09-.22l-.88-.88c-.278.28-.454.668-.454 1.102 0 .86.697 1.553 1.555 1.553H40.95c.44 0 .832-.182 1.115-.475l-.883-.88z"/><path opacity=".2" fill="#F4EFE5" d="M71.11 123.107V10.502C71.11 4.702 66.41 0 60.61 0H10.503C9.53 0 8.607.172 7.717.42l55.29 132.89c4.64-1.09 8.104-5.23 8.104-10.203z"/></svg>