<svg xmlns="http://www.w3.org/2000/svg" width="154.065" height="83.663" viewBox="0 0 154.065 83.663"><path fill="#7F8673" d="M56.256 53.963h40.756c3.03 0 5.475-2.45 5.475-5.475V30.892H88.024c-1.252 5.136-5.867 8.95-11.39 8.95s-10.136-3.814-11.388-8.95H50.78V48.49c0 3.024 2.45 5.473 5.476 5.473z"/><path fill="#7F8673" d="M97.012 2.255H56.256c-3.027 0-5.477 2.45-5.477 5.47v40.764c0 3.024 2.448 5.474 5.476 5.474h40.756c3.03 0 5.475-2.45 5.475-5.475V7.723c0-3.02-2.445-5.47-5.475-5.47zM76.635 39.842c-6.482 0-11.734-5.25-11.734-11.734 0-6.48 5.253-11.733 11.735-11.733 6.48 0 11.734 5.253 11.734 11.733 0 6.484-5.254 11.734-11.735 11.734z"/><path fill="#423D2E" d="M100.74 52.48c-.978.912-2.282 1.482-3.728 1.482H56.256c-3.027 0-5.477-2.45-5.477-5.475V7.724c0-1.442.57-2.744 1.48-3.722l-1.597-1.597c-1.322 1.385-2.14 3.257-2.14 5.318v40.765c0 4.262 3.47 7.73 7.73 7.73H97.01c2.064 0 3.938-.817 5.326-2.142l-1.597-1.596z"/><path fill="#423D2E" d="M76.635 17.643c5.77 0 10.465 4.695 10.465 10.465 0 2.954-1.236 5.62-3.21 7.523l1.6 1.6c2.382-2.31 3.866-5.538 3.866-9.122 0-7.027-5.693-12.72-12.72-12.72-3.583 0-6.813 1.484-9.124 3.864l1.6 1.6c1.904-1.974 4.57-3.21 7.523-3.21z"/><path fill="#D4D6CF" d="M76.635 40.828c3.445 0 6.564-1.374 8.855-3.6l-1.6-1.598c-1.883 1.817-4.44 2.942-7.256 2.942-5.77 0-10.467-4.695-10.467-10.466 0-2.816 1.125-5.373 2.943-7.256l-1.6-1.6c-2.223 2.29-3.598 5.412-3.598 8.855.003 7.03 5.696 12.723 12.723 12.723z"/><path fill="#D4D6CF" d="M56.256 2.255h40.756c3.03 0 5.475 2.45 5.475 5.47v40.764c0 1.58-.678 2.99-1.748 3.99l1.6 1.598c1.476-1.41 2.403-3.392 2.403-5.59V7.725c0-4.26-3.467-7.724-7.73-7.724H56.256c-2.2 0-4.184.927-5.592 2.405l1.598 1.597c1-1.068 2.412-1.747 3.994-1.747z"/><path fill="#7F8673" d="M102.487 30.892V48.49c0 3.024-2.445 5.474-5.475 5.474H56.256c-3.027 0-5.477-2.45-5.477-5.475V30.89H2.253V81.41H151.81V30.89h-49.323z"/><path opacity=".5" fill="#423D2E" d="M2.254 67.686H151.81v5.37H2.255z"/><path fill="#D4D6CF" d="M151.81 28.637h-49.323v2.255h49.324v50.516l2.253 2.255h.002V28.637M2.254 28.637H0l2.254 2.255H50.78l-2.258-2.255"/><path fill="#423D2E" d="M2.254 81.408V30.892L0 28.637v55.026H154.064l-2.254-2.255"/><path opacity=".5" fill="#423D2E" d="M97.012 53.963H56.256c-3.027 0-5.477-2.45-5.477-5.475V30.892H49.65V48.49c0 3.64 2.962 6.602 6.604 6.602h40.756c1.754 0 3.344-.69 4.53-1.81l-.804-.8c-.976.91-2.28 1.48-3.726 1.48z"/><path fill="#9C9F8C" d="M103.616 48.488V30.892h-1.13V48.49c0 1.58-.677 2.99-1.747 3.99l.802.8c1.27-1.205 2.074-2.905 2.074-4.792z"/></svg>