<svg xmlns="http://www.w3.org/2000/svg" width="434.621" height="566.551" viewBox="0 0 434.621 566.551"><path fill="#F4EFE5" d="M434.62 0H0v566.55h365.203L434.62 481"/><path fill="#FAF6F1" d="M434.62 481l-69.417 85.55 65.663-4.017"/><path fill="#F3BA50" d="M47.44 473.71l-.223-.15-.035.266c-.026.2-.654 4.96.016 6.43.788 1.734 5.527 4.884 5.73 5.02l.22.144.036-.264c.028-.198.646-4.914-.013-6.37-.787-1.752-5.528-4.943-5.73-5.077zM62.764 473.56l-.22.15c-.204.133-4.943 3.324-5.73 5.073-.658 1.457-.042 6.173-.015 6.37l.033.265.223-.145c.202-.135 4.942-3.284 5.73-5.02.67-1.47.042-6.23.015-6.43l-.036-.264zM47.44 461.613l-.223-.15-.035.266c-.026.2-.654 4.958.016 6.427.788 1.738 5.527 4.885 5.73 5.02l.22.147.036-.265c.028-.2.646-4.916-.013-6.372-.787-1.75-5.528-4.942-5.73-5.075zM62.764 461.462l-.22.15c-.204.134-4.943 3.327-5.73 5.075-.658 1.456-.042 6.17-.015 6.37l.033.266.223-.147c.202-.135 4.942-3.28 5.73-5.02.67-1.47.042-6.226.015-6.428l-.036-.266zM47.44 449.517l-.223-.15-.035.267c-.026.2-.654 4.96.016 6.43.788 1.736 5.527 4.884 5.73 5.018l.22.144.036-.262c.028-.198.646-4.913-.013-6.372-.787-1.75-5.528-4.944-5.73-5.075zM58.707 447.118c-.275-1.172-3.578-6.14-3.713-6.352 0 0-3.513 5.376-3.713 6.356-.088.438 3.264 4.71 3.826 4.71.506 0 3.704-4.275 3.6-4.714zM56.813 454.59c-.657 1.46-.04 6.174-.014 6.372l.033.262.223-.144c.202-.134 4.942-3.28 5.73-5.02.67-1.468.042-6.227.015-6.428l-.036-.266-.22.15c-.204.132-4.943 3.326-5.73 5.074zM44.5 484.262c.102.09 9.69 8.47 9.69 14.33v.09h.736v-6.984c-.7-.247-6.75-5.308-10.433-8.49l.006 1.054zM54.93 491.697v6.983h.736v-.088c0-5.862 9.596-14.24 9.696-14.33v-1.056c-3.682 3.184-9.73 8.244-10.433 8.49z"/><g><path fill="#F3BA50" d="M54.193 497.765h1.467v68.786h-1.467z"/></g><g><path fill="#F3BA50" d="M77.843 484.984l-.223-.15-.035.268c-.026.2-.654 4.96.016 6.428.79 1.736 5.528 4.885 5.73 5.02l.222.146.035-.265c.028-.197.646-4.912-.013-6.37-.79-1.75-5.53-4.94-5.73-5.076zM93.166 484.835l-.22.15c-.204.134-4.943 3.324-5.73 5.073-.658 1.458-.042 6.173-.015 6.37l.035.266.223-.146c.202-.135 4.942-3.283 5.73-5.02.67-1.47.042-6.228.015-6.428l-.037-.265zM77.843 472.89l-.223-.152-.035.267c-.026.203-.654 4.96.016 6.43.79 1.736 5.528 4.884 5.73 5.018l.222.147.035-.264c.028-.2.646-4.916-.013-6.372-.79-1.75-5.53-4.943-5.73-5.074zM93.166 472.737l-.22.152c-.204.13-4.943 3.324-5.73 5.072-.658 1.456-.042 6.172-.015 6.372l.035.264.223-.147c.202-.133 4.942-3.28 5.73-5.018.67-1.47.042-6.226.015-6.43l-.037-.265zM77.843 460.792l-.223-.15-.035.268c-.026.2-.654 4.96.016 6.43.79 1.736 5.528 4.884 5.73 5.018l.222.144.035-.263c.028-.2.646-4.914-.013-6.372-.79-1.75-5.53-4.944-5.73-5.076zM89.11 458.394c-.276-1.17-3.58-6.14-3.714-6.35 0 0-3.513 5.374-3.713 6.354-.09.438 3.263 4.71 3.825 4.71.507 0 3.704-4.276 3.6-4.714zM87.215 465.866c-.657 1.458-.04 6.173-.014 6.37l.035.264.223-.144c.202-.134 4.942-3.28 5.73-5.02.67-1.47.042-6.228.015-6.428l-.037-.267-.22.15c-.204.134-4.943 3.327-5.73 5.076z"/><g><path fill="#F3BA50" d="M74.9 495.538c.104.09 9.69 8.468 9.69 14.33v.088h.738v-6.983c-.7-.246-6.75-5.308-10.433-8.49l.006 1.055zM85.33 502.973v6.983h.738v-.088c0-5.862 9.596-14.24 9.696-14.33v-1.056c-3.682 3.183-9.73 8.245-10.434 8.49z"/></g><g><path fill="#F3BA50" d="M84.596 509.04h1.467v57.51h-1.467z"/></g></g><g><path fill="#F3BA50" d="M21.582 435.734l-.222-.147-.035.265c-.027.2-.654 4.96.015 6.43.79 1.736 5.528 4.885 5.73 5.018l.222.146.035-.265c.027-.197.646-4.912-.014-6.37-.79-1.747-5.53-4.94-5.73-5.076zM36.906 435.587l-.222.147c-.202.135-4.94 3.328-5.73 5.074-.657 1.458-.04 6.173-.013 6.37l.035.266.222-.146c.203-.133 4.942-3.28 5.73-5.018.67-1.47.042-6.23.015-6.43l-.036-.263zM21.582 423.64l-.222-.15-.035.265c-.027.205-.654 4.962.015 6.43.79 1.736 5.528 4.886 5.73 5.018l.222.147.035-.264c.027-.2.646-4.916-.014-6.372-.79-1.75-5.53-4.94-5.73-5.074zM36.906 423.49l-.222.15c-.202.133-4.94 3.324-5.73 5.072-.657 1.456-.04 6.172-.013 6.372l.035.264.222-.147c.203-.13 4.942-3.28 5.73-5.016.67-1.47.042-6.226.015-6.43l-.036-.265zM21.582 411.542l-.222-.15-.035.27c-.027.2-.654 4.957.015 6.427.79 1.736 5.528 4.883 5.73 5.018l.222.146.035-.265c.027-.2.646-4.914-.014-6.37-.79-1.753-5.53-4.943-5.73-5.078zM32.85 409.146c-.275-1.174-3.58-6.14-3.713-6.352 0 0-3.513 5.373-3.714 6.354-.09.44 3.263 4.713 3.826 4.713.504 0 3.702-4.278 3.6-4.714zM30.954 416.618c-.657 1.456-.04 6.17-.013 6.37l.035.264.222-.146c.203-.135 4.942-3.28 5.73-5.02.67-1.47.042-6.226.015-6.426l-.036-.27-.222.15c-.202.137-4.94 3.327-5.73 5.078z"/><g><path fill="#F3BA50" d="M18.642 446.288c.103.09 9.69 8.47 9.69 14.33v.088h.737v-6.983c-.702-.246-6.752-5.305-10.435-8.487l.007 1.052zM29.07 453.723v6.983h.736v-.088c0-5.86 9.596-14.24 9.697-14.33v-1.053c-3.683 3.183-9.732 8.242-10.434 8.488z"/></g><g><path fill="#F3BA50" d="M28.336 459.79h1.467v106.76h-1.467z"/></g></g><g><path fill="#F3BA50" d="M106.813 458.286l-.223-.147-.035.263c-.026.2-.654 4.96.016 6.43.79 1.736 5.528 4.886 5.73 5.018l.222.147.035-.265c.027-.198.646-4.913-.014-6.37-.788-1.75-5.528-4.942-5.73-5.076zM122.137 458.14l-.222.146c-.202.134-4.94 3.327-5.73 5.074-.657 1.458-.04 6.173-.013 6.37l.034.266.223-.146c.2-.132 4.94-3.28 5.73-5.017.668-1.47.04-6.23.013-6.43l-.036-.264zM106.813 446.19l-.223-.15-.035.266c-.026.204-.654 4.962.016 6.43.79 1.736 5.528 4.886 5.73 5.018l.222.147.035-.263c.027-.2.646-4.916-.014-6.372-.788-1.748-5.528-4.94-5.73-5.074zM122.137 446.04l-.222.15c-.202.135-4.94 3.326-5.73 5.074-.657 1.456-.04 6.17-.013 6.372l.034.264.223-.147c.2-.132 4.94-3.28 5.73-5.017.668-1.47.04-6.227.013-6.43l-.036-.265zM106.813 434.094l-.223-.15-.035.27c-.026.2-.654 4.957.016 6.426.79 1.738 5.528 4.885 5.73 5.02l.222.145.035-.264c.027-.197.646-4.912-.014-6.368-.788-1.753-5.528-4.943-5.73-5.078zM118.08 431.697c-.275-1.174-3.58-6.14-3.713-6.352 0 0-3.513 5.374-3.713 6.354-.09.44 3.263 4.712 3.825 4.712.504 0 3.703-4.278 3.6-4.715zM116.185 439.17c-.657 1.456-.04 6.17-.013 6.37l.034.263.223-.145c.2-.135 4.94-3.28 5.73-5.02.668-1.47.04-6.226.013-6.426l-.036-.27-.222.15c-.202.137-4.94 3.327-5.73 5.078z"/><g><path fill="#F3BA50" d="M103.872 468.84c.103.09 9.69 8.47 9.69 14.33v.088h.737v-6.983c-.702-.247-6.752-5.306-10.435-8.487l.007 1.052zM114.3 476.274v6.983h.74v-.088c0-5.86 9.594-14.24 9.695-14.33v-1.054c-3.683 3.183-9.73 8.24-10.434 8.488z"/></g><g><path fill="#F3BA50" d="M113.566 482.342h1.467v84.21h-1.467z"/></g></g><g><path fill="#F3BA50" d="M340.157 473.71l-.223-.15-.035.266c-.027.2-.654 4.96.015 6.43.788 1.734 5.528 4.884 5.73 5.02l.222.144.035-.264c.028-.198.645-4.914-.014-6.37-.788-1.752-5.528-4.943-5.73-5.077zM355.48 473.56l-.22.15c-.202.133-4.942 3.324-5.73 5.073-.658 1.457-.042 6.173-.013 6.37l.032.265.222-.145c.203-.135 4.942-3.284 5.732-5.02.668-1.47.04-6.23.014-6.43l-.037-.264zM340.157 461.613l-.223-.15-.035.266c-.027.2-.654 4.958.015 6.427.788 1.738 5.528 4.885 5.73 5.02l.222.147.035-.265c.028-.2.645-4.916-.014-6.372-.788-1.75-5.528-4.942-5.73-5.075zM355.48 461.462l-.22.15c-.202.134-4.942 3.327-5.73 5.075-.658 1.456-.042 6.17-.013 6.37l.032.266.222-.147c.203-.135 4.942-3.28 5.732-5.02.668-1.47.04-6.226.014-6.428l-.037-.266zM340.157 449.517l-.223-.15-.035.267c-.027.2-.654 4.96.015 6.43.788 1.736 5.528 4.884 5.73 5.018l.222.144.035-.262c.028-.198.645-4.913-.014-6.372-.788-1.75-5.528-4.944-5.73-5.075zM351.425 447.118c-.275-1.172-3.58-6.14-3.714-6.352 0 0-3.512 5.376-3.712 6.356-.088.438 3.264 4.71 3.825 4.71.507 0 3.705-4.275 3.602-4.714zM349.53 454.59c-.658 1.46-.042 6.174-.013 6.372l.032.262.222-.144c.203-.134 4.942-3.28 5.732-5.02.668-1.468.04-6.227.014-6.428l-.037-.266-.22.15c-.2.132-4.942 3.326-5.73 5.074z"/><g><path fill="#F3BA50" d="M337.218 484.262c.1.09 9.69 8.47 9.69 14.33v.09h.737v-6.984c-.703-.247-6.753-5.308-10.435-8.49l.008 1.054zM347.646 491.697v6.983h.737v-.088c0-5.862 9.596-14.24 9.697-14.33v-1.056c-3.683 3.184-9.732 8.244-10.434 8.49z"/></g><g><path fill="#F3BA50" d="M346.912 497.765h1.467v68.786h-1.468z"/></g></g><g><path fill="#F3BA50" d="M310.21 484.984l-.224-.15-.035.268c-.025.2-.653 4.96.017 6.428.788 1.736 5.527 4.885 5.728 5.02l.223.146.035-.265c.028-.197.646-4.912-.013-6.37-.79-1.75-5.53-4.94-5.73-5.076zM325.532 484.835l-.22.15c-.203.134-4.942 3.324-5.73 5.073-.66 1.458-.042 6.173-.014 6.37l.033.266.224-.146c.202-.135 4.94-3.283 5.732-5.02.667-1.47.04-6.228.013-6.428l-.038-.265zM310.21 472.89l-.224-.152-.035.267c-.025.203-.653 4.96.017 6.43.788 1.736 5.527 4.884 5.728 5.018l.223.147.035-.264c.028-.2.646-4.916-.013-6.372-.79-1.75-5.53-4.943-5.73-5.074zM325.532 472.737l-.22.152c-.203.13-4.942 3.324-5.73 5.072-.66 1.456-.042 6.172-.014 6.372l.033.264.224-.147c.202-.133 4.94-3.28 5.732-5.018.667-1.47.04-6.226.013-6.43l-.038-.265zM310.21 460.792l-.224-.15-.035.268c-.025.2-.653 4.96.017 6.43.788 1.736 5.527 4.884 5.728 5.018l.223.144.035-.263c.028-.2.646-4.914-.013-6.372-.79-1.75-5.53-4.944-5.73-5.076zM321.476 458.394c-.275-1.17-3.58-6.14-3.713-6.35 0 0-3.513 5.374-3.713 6.354-.09.438 3.264 4.71 3.825 4.71.506 0 3.704-4.276 3.6-4.714zM319.582 465.866c-.66 1.458-.042 6.173-.014 6.37l.033.264.224-.144c.202-.134 4.94-3.28 5.732-5.02.667-1.47.04-6.228.013-6.428l-.038-.267-.22.15c-.203.134-4.942 3.327-5.73 5.076z"/><g><path fill="#F3BA50" d="M307.27 495.538c.1.09 9.69 8.468 9.69 14.33v.088h.735v-6.983c-.702-.246-6.752-5.308-10.435-8.49l.01 1.055zM317.696 502.973v6.983h.738v-.088c0-5.862 9.595-14.24 9.696-14.33v-1.056c-3.682 3.183-9.73 8.245-10.434 8.49z"/></g><g><path fill="#F3BA50" d="M316.963 509.04h1.467v57.51h-1.467z"/></g></g><g><path fill="#F3BA50" d="M399.905 462.722l.222.146.035-.265c.03-.198.646-4.913-.013-6.37-.79-1.75-5.53-4.94-5.73-5.075l-.224-.15-.035.267c-.025.2-.653 4.96.017 6.43.788 1.733 5.527 4.882 5.728 5.017zM409.522 451.157c-.203.134-4.942 3.325-5.73 5.074-.658 1.46-.042 6.174-.014 6.372l.033.265.224-.146c.202-.134 4.942-3.283 5.732-5.02.667-1.468.04-6.227.014-6.428l-.038-.266-.22.15zM399.905 450.624l.222.147.035-.263c.03-.2.646-4.916-.013-6.37-.79-1.75-5.53-4.943-5.73-5.075l-.224-.152-.035.267c-.025.202-.653 4.96.017 6.43.788 1.736 5.527 4.883 5.728 5.017zM409.78 439.177l-.038-.267-.22.152c-.203.132-4.942 3.325-5.73 5.074-.658 1.455-.042 6.17-.014 6.37l.033.265.224-.146c.202-.134 4.942-3.28 5.732-5.02.668-1.467.04-6.225.014-6.427zM399.905 438.53l.222.142.035-.262c.03-.198.646-4.913-.013-6.37-.79-1.75-5.53-4.943-5.73-5.075l-.224-.15-.035.268c-.025.2-.653 4.96.017 6.428.788 1.738 5.527 4.885 5.728 5.02zM402.085 429.28c.507 0 3.704-4.275 3.6-4.714-.274-1.172-3.577-6.14-3.712-6.352 0 0-3.513 5.376-3.713 6.355-.088.44 3.263 4.71 3.825 4.71zM403.792 432.04c-.658 1.457-.042 6.172-.014 6.37l.033.262.224-.143c.202-.136 4.942-3.282 5.732-5.02.667-1.47.04-6.23.014-6.43l-.038-.267-.22.15c-.203.134-4.942 3.327-5.73 5.076zM401.907 475.213v-6.067c-.703-.247-6.753-5.308-10.435-8.49l.006 1.056c.102.09 9.69 8.467 9.69 14.33v.088h.005v-.916h.734z"/><path fill="#F3BA50" d="M402.64 476.13h.005v-.09c0-5.862 9.596-14.24 9.697-14.33v-1.055c-3.683 3.183-9.732 8.243-10.435 8.49v6.067h.733v.917z"/><path fill="#F3BA50" d="M402.64 476.13h-.453H401.908v-.917.916h-.733v46.118l1.467-1.81v-44.31z"/><path fill="#F2CD7E" d="M402.64 520.44l-1.466 1.808v42.032l.283-.017 1.184-.074"/><path fill="#F3BA50" d="M401.8 476.13h.107v-.917h-.733v.916h.625zM402.015 476.13h.626v-.917h-.732v.916h.107z"/></g><g><path fill="#F3BA50" d="M374.048 447.3l.223.145.036-.265c.026-.198.646-4.913-.014-6.37-.788-1.747-5.53-4.94-5.73-5.075l-.222-.147-.035.265c-.026.2-.654 4.96.016 6.43.788 1.735 5.528 4.883 5.728 5.016zM383.663 435.734c-.202.135-4.94 3.328-5.73 5.074-.656 1.458-.04 6.173-.013 6.37l.035.266.223-.146c.202-.133 4.94-3.28 5.73-5.018.67-1.47.04-6.23.013-6.43l-.034-.265-.223.15zM374.048 435.2l.223.148.036-.264c.026-.2.646-4.916-.014-6.372-.788-1.748-5.53-4.94-5.73-5.073l-.222-.15-.035.264c-.026.205-.654 4.962.016 6.43.788 1.736 5.528 4.885 5.728 5.017zM383.92 423.754l-.034-.265-.223.15c-.202.133-4.94 3.324-5.73 5.072-.656 1.456-.04 6.172-.013 6.372l.035.264.223-.147c.202-.13 4.94-3.28 5.73-5.016.67-1.468.04-6.225.013-6.43zM374.048 423.106l.223.146.036-.265c.026-.198.646-4.913-.014-6.37-.788-1.75-5.53-4.94-5.73-5.075l-.222-.15-.035.27c-.026.2-.654 4.957.016 6.427.788 1.735 5.528 4.882 5.728 5.016zM376.23 413.86c.503 0 3.7-4.278 3.6-4.714-.275-1.174-3.58-6.14-3.713-6.352 0 0-3.513 5.373-3.714 6.354-.09.44 3.26 4.713 3.826 4.713zM377.933 416.618c-.656 1.456-.04 6.17-.013 6.37l.035.264.223-.146c.202-.135 4.94-3.28 5.73-5.02.67-1.47.04-6.226.013-6.426l-.034-.27-.223.15c-.202.137-4.94 3.327-5.73 5.078zM376.048 459.79v-6.067c-.7-.246-6.75-5.305-10.433-8.487l.005 1.053c.104.09 9.69 8.47 9.69 14.33v.087h.004v-.916h.734zM376.78 460.706h.008v-.088c0-5.86 9.595-14.24 9.696-14.33v-1.053c-3.685 3.183-9.732 8.24-10.435 8.487v6.067h.73v.916zM375.314 565.89l1.222-.076-1.222.076"/><path fill="#F3BA50" d="M376.78 460.706h-.45H376.05v-.916h-.002v.916H375.315v93.416l1.467-1.808v-91.608z"/><path fill="#F2CD7E" d="M376.78 552.314l-1.466 1.808v11.768l1.222-.076.245-.014"/><path fill="#F3BA50" d="M375.94 460.706h.107v-.916h-.733v.916h.626zM376.158 460.706h.622v-.916h-.73v.916h.108z"/></g><g><path fill="#F3BA50" d="M171.355 473.71l-.223-.15-.035.266c-.026.2-.654 4.96.016 6.43.788 1.734 5.527 4.884 5.73 5.02l.22.144.036-.264c.027-.198.645-4.914-.014-6.37-.79-1.752-5.53-4.943-5.73-5.077zM186.678 473.56l-.22.15c-.204.133-4.943 3.324-5.73 5.073-.658 1.457-.042 6.173-.015 6.37l.034.265.223-.145c.202-.135 4.942-3.284 5.73-5.02.67-1.47.042-6.23.015-6.43l-.037-.264zM171.355 461.613l-.223-.15-.035.266c-.026.2-.654 4.958.016 6.427.788 1.738 5.527 4.885 5.73 5.02l.22.147.036-.265c.027-.2.645-4.916-.014-6.372-.79-1.75-5.53-4.942-5.73-5.075zM186.678 461.462l-.22.15c-.204.134-4.943 3.327-5.73 5.075-.658 1.456-.042 6.17-.015 6.37l.034.266.223-.147c.202-.135 4.942-3.28 5.73-5.02.67-1.47.042-6.226.015-6.428l-.037-.266zM171.355 449.517l-.223-.15-.035.267c-.026.2-.654 4.96.016 6.43.788 1.736 5.527 4.884 5.73 5.018l.22.144.036-.262c.027-.198.645-4.913-.014-6.372-.79-1.75-5.53-4.944-5.73-5.075zM182.622 447.118c-.275-1.172-3.578-6.14-3.713-6.352 0 0-3.514 5.376-3.714 6.356-.09.438 3.263 4.71 3.825 4.71.507 0 3.704-4.275 3.602-4.714zM180.727 454.59c-.657 1.46-.04 6.174-.014 6.372l.034.262.223-.144c.202-.134 4.942-3.28 5.73-5.02.67-1.468.042-6.227.015-6.428l-.037-.266-.22.15c-.204.132-4.943 3.326-5.73 5.074z"/><g><path fill="#F3BA50" d="M168.414 484.262c.103.09 9.69 8.47 9.69 14.33v.09h.737v-6.984c-.7-.247-6.75-5.308-10.432-8.49l.006 1.054zM178.843 491.697v6.983h.737v-.088c0-5.862 9.596-14.24 9.696-14.33v-1.056c-3.682 3.184-9.73 8.244-10.433 8.49z"/></g><g><path fill="#F3BA50" d="M178.108 497.765h1.467v68.786h-1.467z"/></g><g><path fill="#F3BA50" d="M207.97 483.71l-.223-.15-.035.266c-.026.2-.654 4.96.016 6.43.788 1.734 5.527 4.884 5.73 5.02l.22.144.036-.264c.028-.198.646-4.914-.013-6.37-.788-1.752-5.53-4.943-5.73-5.077zM223.293 483.56l-.22.15c-.204.133-4.943 3.324-5.73 5.073-.658 1.457-.042 6.173-.015 6.37l.034.265.223-.145c.202-.135 4.942-3.284 5.73-5.02.67-1.47.042-6.23.015-6.43l-.037-.264zM207.97 471.613l-.223-.15-.035.266c-.026.2-.654 4.958.016 6.427.788 1.738 5.527 4.885 5.73 5.02l.22.147.036-.265c.028-.2.646-4.916-.013-6.372-.788-1.75-5.53-4.942-5.73-5.075zM223.293 471.462l-.22.15c-.204.134-4.943 3.327-5.73 5.075-.658 1.456-.042 6.17-.015 6.37l.034.266.223-.147c.202-.135 4.942-3.28 5.73-5.02.67-1.47.042-6.226.015-6.428l-.037-.266zM207.97 459.517l-.223-.15-.035.267c-.026.2-.654 4.96.016 6.43.788 1.736 5.527 4.884 5.73 5.018l.22.144.036-.262c.028-.198.646-4.913-.013-6.372-.788-1.75-5.53-4.944-5.73-5.075zM219.236 457.118c-.275-1.172-3.578-6.14-3.713-6.352 0 0-3.513 5.376-3.713 6.356-.09.438 3.263 4.71 3.825 4.71.507 0 3.704-4.275 3.6-4.714zM217.342 464.59c-.657 1.46-.04 6.174-.014 6.372l.034.262.223-.144c.202-.134 4.942-3.28 5.73-5.02.67-1.468.042-6.227.015-6.428l-.037-.266-.22.15c-.204.132-4.943 3.326-5.73 5.074z"/><g><path fill="#F3BA50" d="M205.028 494.262c.103.09 9.69 8.47 9.69 14.33v.09h.737v-6.984c-.7-.247-6.75-5.308-10.433-8.49l.006 1.054zM215.458 501.697v6.983h.737v-.088c0-5.862 9.596-14.24 9.697-14.33v-1.056c-3.683 3.184-9.732 8.244-10.434 8.49z"/></g><g><path fill="#F3BA50" d="M214.723 507.765h1.467v58.786h-1.467z"/></g></g><g><path fill="#F3BA50" d="M243.923 487.432l-.223-.15-.035.267c-.025.2-.654 4.96.016 6.428.79 1.735 5.528 4.885 5.73 5.02l.223.145.035-.264c.027-.2.645-4.915-.014-6.372-.788-1.75-5.53-4.943-5.73-5.076zM259.246 487.28l-.22.15c-.204.135-4.943 3.326-5.73 5.075-.658 1.457-.04 6.173-.014 6.37l.033.265.223-.145c.203-.135 4.942-3.284 5.73-5.02.67-1.47.042-6.23.015-6.43l-.037-.264zM243.923 475.336l-.223-.15-.035.266c-.025.202-.654 4.96.016 6.428.79 1.738 5.528 4.885 5.73 5.02l.223.147.035-.265c.027-.2.645-4.915-.014-6.37-.788-1.75-5.53-4.943-5.73-5.076zM259.246 475.185l-.22.15c-.204.134-4.943 3.327-5.73 5.075-.658 1.456-.04 6.17-.014 6.37l.033.266.223-.147c.203-.136 4.942-3.282 5.73-5.02.67-1.47.042-6.227.015-6.43l-.037-.265zM243.923 463.24l-.223-.15-.035.266c-.025.2-.654 4.96.016 6.43.79 1.736 5.528 4.884 5.73 5.018l.223.144.035-.262c.027-.198.645-4.913-.014-6.372-.788-1.75-5.53-4.943-5.73-5.075zM255.19 460.84c-.275-1.17-3.578-6.14-3.713-6.35 0 0-3.514 5.375-3.713 6.355-.09.438 3.262 4.71 3.824 4.71.507 0 3.704-4.276 3.602-4.714zM253.296 468.313c-.658 1.46-.04 6.174-.014 6.372l.033.262.223-.144c.203-.134 4.942-3.28 5.73-5.02.67-1.468.042-6.227.015-6.428l-.037-.266-.22.148c-.204.133-4.943 3.326-5.73 5.075z"/><g><path fill="#F3BA50" d="M240.98 497.984c.105.09 9.692 8.47 9.692 14.33v.09h.736v-6.984c-.7-.247-6.75-5.308-10.432-8.49l.005 1.054zM251.41 505.42v6.983h.74v-.088c0-5.862 9.594-14.24 9.695-14.33v-1.056c-3.683 3.182-9.73 8.243-10.434 8.49z"/></g><g><path fill="#F3BA50" d="M250.677 511.487h1.467v55.063h-1.467z"/></g></g><g><path fill="#F3BA50" d="M149.948 487.43l.223-.148.036.265c.026.2.654 4.96-.016 6.43-.788 1.736-5.527 4.886-5.728 5.018l-.223.146-.036-.264c-.027-.198-.646-4.913.013-6.37.79-1.75 5.53-4.943 5.73-5.077zM134.625 487.28l.222.148c.202.135 4.94 3.328 5.73 5.074.657 1.458.04 6.173.013 6.37l-.034.266-.223-.146c-.202-.132-4.94-3.28-5.73-5.017-.67-1.47-.04-6.23-.014-6.43l.035-.264zM149.948 475.334l.223-.15.036.265c.026.204.654 4.96-.016 6.43-.788 1.735-5.527 4.885-5.728 5.018l-.223.146-.036-.264c-.027-.2-.646-4.916.013-6.37.79-1.75 5.53-4.94 5.73-5.076zM134.625 475.184l.222.15c.202.135 4.94 3.325 5.73 5.074.657 1.455.04 6.17.013 6.37l-.034.265-.223-.146c-.202-.133-4.94-3.282-5.73-5.018-.67-1.47-.04-6.227-.014-6.432l.035-.264zM149.948 463.236l.223-.15.036.27c.026.2.654 4.957-.016 6.427-.788 1.737-5.527 4.884-5.728 5.02l-.223.145-.036-.265c-.027-.197-.646-4.913.013-6.37.79-1.75 5.53-4.942 5.73-5.077zM138.682 460.84c.275-1.173 3.58-6.14 3.713-6.35 0 0 3.513 5.373 3.713 6.353.09.44-3.263 4.713-3.825 4.713-.506 0-3.704-4.28-3.6-4.715zM140.577 468.313c.657 1.456.04 6.172.013 6.37l-.034.264-.223-.146c-.202-.134-4.94-3.28-5.73-5.018-.67-1.47-.04-6.227-.014-6.427l.035-.27.222.15c.202.136 4.94 3.328 5.73 5.078z"/><g><path fill="#F3BA50" d="M152.89 497.982c-.103.09-9.69 8.47-9.69 14.33v.088h-.46-.277v-6.983c.7-.246 6.75-5.305 10.434-8.487l-.007 1.052zM142.46 505.417v6.983h-.736v-.088c0-5.86-9.595-14.24-9.696-14.33v-1.053c3.683 3.182 9.73 8.24 10.434 8.487z"/></g><g><path fill="#F3BA50" d="M141.73 511.484h1.466v55.066h-1.467z"/></g></g><g><path fill="#F3BA50" d="M295.705 475.39l.222-.148.035.267c.026.2.654 4.96-.015 6.428-.79 1.735-5.528 4.885-5.73 5.02l-.222.145-.035-.265c-.028-.197-.646-4.913.014-6.37.79-1.75 5.528-4.943 5.73-5.077zM280.38 475.24l.222.15c.202.135 4.94 3.326 5.73 5.074.658 1.458.04 6.174.013 6.37l-.033.266-.223-.146c-.203-.134-4.942-3.283-5.733-5.02-.667-1.468-.04-6.228-.013-6.428l.037-.265zM295.705 463.296l.222-.15.035.265c.026.204.654 4.96-.015 6.43-.79 1.738-5.528 4.885-5.73 5.02l-.222.147-.035-.265c-.028-.2-.646-4.915.014-6.37.79-1.75 5.528-4.944 5.73-5.076zM280.38 463.145l.222.15c.202.133 4.94 3.326 5.73 5.075.658 1.456.04 6.17.013 6.37l-.033.266-.223-.147c-.203-.136-4.942-3.282-5.733-5.02-.667-1.47-.04-6.227-.013-6.43l.037-.265zM295.705 451.2l.222-.15.035.266c.026.2.654 4.96-.015 6.43-.79 1.736-5.528 4.884-5.73 5.02l-.222.142-.035-.262c-.028-.198-.646-4.914.014-6.37.79-1.752 5.528-4.945 5.73-5.077zM284.438 448.8c.275-1.17 3.58-6.14 3.713-6.35 0 0 3.514 5.375 3.714 6.354.09.438-3.264 4.71-3.825 4.71-.508.002-3.706-4.276-3.602-4.713zM286.332 456.273c.658 1.457.04 6.173.013 6.37l-.033.263-.223-.143c-.203-.135-4.942-3.282-5.733-5.02-.667-1.47-.04-6.23-.013-6.43l.037-.266.222.15c.202.134 4.94 3.327 5.73 5.076z"/><g><path fill="#F3BA50" d="M298.645 485.944c-.102.09-9.69 8.468-9.69 14.33v.09h-.458H288.218v-6.984c.702-.247 6.752-5.308 10.435-8.49l-.008 1.054zM288.217 493.38v6.983h-.74v-.088c0-5.863-9.594-14.24-9.695-14.33v-1.056c3.682 3.182 9.732 8.243 10.434 8.49z"/></g><g><path fill="#F3BA50" d="M287.482 499.447h1.467v67.104h-1.468z"/></g></g></g></svg>