<?xml version="1.0" standalone="no"?>
<!DOCTYPE svg PUBLIC "-//W3C//DTD SVG 20010904//EN"
 "http://www.w3.org/TR/2001/REC-SVG-20010904/DTD/svg10.dtd">
<svg version="1.0" xmlns="http://www.w3.org/2000/svg"
 width="400.000000pt" height="400.000000pt" viewBox="0 0 400.000000 400.000000"
 preserveAspectRatio="xMidYMid meet">
<metadata>
Created by potrace 1.11, written by Peter Selinger 2001-2013
</metadata>
<g transform="translate(0.000000,400.000000) scale(0.100000,-0.100000)"
fill="#000000" stroke="none">
<path d="M1533 3978 c-77 -10 -116 -24 -110 -41 2 -6 37 -28 78 -48 81 -39
171 -118 209 -184 13 -22 27 -42 30 -45 3 -3 11 -18 18 -35 6 -16 17 -43 23
-60 39 -98 53 -236 32 -315 -3 -14 -7 -27 -8 -30 -4 -18 -31 -58 -49 -72 -56
-46 -177 4 -194 81 -7 32 -2 89 11 121 17 42 25 105 15 123 -9 17 -18 19 -63
14 -144 -15 -308 -125 -485 -327 -61 -69 -197 -287 -274 -437 -42 -84 -74
-153 -70 -153 3 0 2 -6 -4 -12 -6 -7 -22 -44 -37 -83 -15 -38 -31 -79 -36 -90
-15 -33 -79 -235 -79 -249 0 -7 -9 -41 -20 -75 -20 -63 -43 -169 -56 -256 -10
-63 -9 -343 1 -410 4 -27 14 -79 21 -115 8 -36 17 -76 20 -90 10 -51 68 -198
114 -291 134 -270 340 -492 610 -655 47 -29 106 -59 130 -67 25 -9 70 -26 100
-40 72 -32 91 -39 115 -44 11 -2 27 -6 35 -10 8 -3 20 -7 25 -8 115 -26 144
-31 220 -40 74 -9 286 -13 300 -6 5 3 27 6 50 7 22 1 42 3 45 4 3 1 9 2 13 1
4 -1 36 5 71 13 35 9 76 17 91 20 52 10 160 49 211 77 28 16 54 25 58 22 3 -4
6 -1 6 5 0 7 9 12 20 12 26 0 232 118 260 150 3 3 21 17 41 32 50 37 188 174
235 233 21 28 41 52 44 55 3 3 21 30 41 60 135 205 214 406 255 655 8 45 8
399 1 460 -19 150 -76 314 -196 554 -49 100 -87 181 -84 181 3 0 1 6 -5 13 -6
6 -11 17 -12 22 -1 6 -7 21 -12 35 -30 80 -51 183 -52 260 -2 143 18 196 100
268 30 26 54 54 54 64 0 19 -55 54 -130 80 -122 42 -232 42 -368 -1 -64 -21
-162 -68 -174 -85 -3 -5 -16 24 -28 65 -25 84 -74 186 -121 256 -45 66 -162
180 -230 225 -48 32 -194 111 -209 113 -3 0 -41 13 -85 28 -44 14 -91 28 -105
31 -14 3 -49 9 -77 15 -47 9 -134 18 -233 24 -19 2 -63 -1 -97 -5z"/>
</g>
</svg>
